<svg version="1.1" id="レイヤー_1" xmlns="http://www.w3.org/2000/svg" x="0" y="0" width="100" height="100" xml:space="preserve"><style>.st0{fill:#00553c}</style><path class="st0" d="M62.755 25.01h-25.51c-6.746 0-12.235 5.488-12.235 12.235v25.511c0 6.746 5.488 12.235 12.235 12.235h25.511c6.746 0 12.235-5.488 12.235-12.235V37.245c-.001-6.747-5.489-12.235-12.236-12.235zM50 65.879c-8.756 0-15.879-7.123-15.879-15.879S41.244 34.121 50 34.121 65.879 41.244 65.879 50 58.756 65.879 50 65.879zm16.414-28.434a3.828 3.828 0 110-7.656 3.828 3.828 0 010 7.656z"/><path class="st0" d="M50 39.848c-5.598 0-10.152 4.554-10.152 10.153 0 5.598 4.554 10.152 10.152 10.152 5.598 0 10.152-4.554 10.152-10.152 0-5.599-4.554-10.153-10.152-10.153z"/><path class="st0" d="M82.5 2.5h-65c-8.284 0-15 6.716-15 15v65c0 8.284 6.716 15 15 15h65c8.284 0 15-6.716 15-15v-65c0-8.284-6.716-15-15-15zm-1.783 60.255c0 9.904-8.058 17.962-17.962 17.962h-25.51c-9.904 0-17.962-8.057-17.962-17.962v-25.51c0-9.904 8.058-17.962 17.962-17.962h25.511c9.904 0 17.962 8.058 17.962 17.962v25.51z"/></svg>