<svg version="1.1" id="レイヤー_1" xmlns="http://www.w3.org/2000/svg" x="0" y="0" width="100" height="100" xml:space="preserve"><style>.st0{fill:#231815}</style><path class="st0" d="M53.961 57.85c-1.121.237-2.25.361-3.381.413l-.013-1.266c-.004-.378-.259-.687-.693-.679a.685.685 0 00-.679.693l.013 1.267a20.8 20.8 0 01-3.258-.301.686.686 0 10-.241 1.351c1.168.209 2.341.309 3.514.331l.017 1.564c.004.377.31.679.686.679h.007a.685.685 0 00.679-.693l-.017-1.557a22.285 22.285 0 003.65-.46.687.687 0 00-.284-1.342zM38.709 29.263c3.508 1.343 7.103 2.014 10.694 2.014 3.885 0 7.764-.786 11.521-2.355a.685.685 0 10-.529-1.266 29.689 29.689 0 01-4.28 1.414l.566-4.633a.685.685 0 00-.598-.764.68.68 0 00-.764.598l-.625 5.113a27.613 27.613 0 01-10.072.1l-.724-5.021a.686.686 0 00-1.358.196l.655 4.539a29.619 29.619 0 01-3.995-1.216.683.683 0 00-.886.395.684.684 0 00.395.886zM38.791 36.108c3.509 1.344 7.103 2.014 10.694 2.014 3.884 0 7.764-.786 11.52-2.354a.686.686 0 10-.528-1.266c-3.224 1.346-6.542 2.08-9.874 2.215l-.038-3.53a.686.686 0 00-.686-.679h-.007a.685.685 0 00-.679.693l.038 3.537c-3.341-.031-6.685-.662-9.95-1.912a.686.686 0 00-.49 1.282zM56.362 39.386a.685.685 0 10-1.123.789 46.232 46.232 0 014.471 7.932c-5.469-1.789-11.118-1.965-16.602-.533.949-.903 1.595-1.864 1.575-2.859-.095-1.678-1.581-1.926-2.565-2.091-.933-.156-1.353-.268-1.46-.683a.618.618 0 01.099-.543c.454-.657 1.882-1.033 2.153-1.064l-.032-.683-.454.515.453-.515.288-.623c-.527-.248-2.284.425-3.031 1.046-.726.603-1.013 1.385-.806 2.205.34 1.326 1.625 1.542 2.564 1.698 1.168.196 1.393.325 1.42.79.018.881-1.296 2.185-3.904 3.877-.625.406-1.038.673-.799 1.232a.686.686 0 00.895.363c6.898-2.88 14.226-2.992 21.196-.325a.686.686 0 00.883-.897 47.734 47.734 0 00-5.221-9.631zM30.049 31.547a20.813 20.813 0 01-8.012.128.686.686 0 10-.241 1.351c1.303.232 2.612.349 3.921.349 1.544 0 3.087-.162 4.616-.485a.687.687 0 00-.284-1.343zM23.609 66.034a.687.687 0 00-.675-.698c-1.066-.017-1.912-.37-2.584-1.078-1.754-1.846-1.65-5.426-1.649-5.483l.03-4.413a9.521 9.521 0 002.753.414c1.059 0 2.117-.18 3.142-.538a.685.685 0 00.421-.874.688.688 0 00-.874-.422 8.091 8.091 0 01-5.186.066c-.082-.026-.165-.031-.245-.026l.021-2.781a9.526 9.526 0 002.669.391c1.059 0 2.117-.18 3.142-.538a.685.685 0 00.421-.874.688.688 0 00-.874-.422 8.094 8.094 0 01-5.187.066c-.053-.017-.106-.014-.159-.018l.013-1.378c.041-3.81-1.947-5.064-2.031-5.116a.68.68 0 00-.932.223.691.691 0 00.209.944c.058.038 1.414.961 1.382 3.934-.029 2.688-.086 11.331-.085 11.331-.007.17-.129 4.186 2.022 6.454.927.978 2.125 1.485 3.561 1.509h.011a.682.682 0 00.684-.673zM28.922 58.746c-.006.17-.129 4.186 2.022 6.454.927.978 2.125 1.485 3.561 1.509h.011a.686.686 0 00.011-1.373c-1.066-.017-1.912-.37-2.584-1.078-1.754-1.846-1.65-5.426-1.649-5.483l.03-4.413a9.521 9.521 0 002.753.414c1.059 0 2.117-.18 3.142-.538a.685.685 0 00.421-.874.688.688 0 00-.874-.422 8.091 8.091 0 01-5.186.066c-.082-.026-.165-.031-.245-.026l.021-2.781a9.526 9.526 0 002.669.391c1.059 0 2.117-.18 3.142-.538a.686.686 0 00-.452-1.296 8.095 8.095 0 01-5.187.066c-.053-.017-.106-.014-.159-.018l.013-1.378c.041-3.81-1.946-5.064-2.03-5.116a.68.68 0 00-.932.223.691.691 0 00.209.944c.058.038 1.413.961 1.381 3.934-.032 2.69-.089 11.333-.088 11.333z"/><path class="st0" d="M28.645 23.54H23.48c-4.915 0-8.913 3.998-8.913 8.913s3.998 8.913 8.913 8.913h5.165c4.915 0 8.913-3.998 8.913-8.913s-3.998-8.913-8.913-8.913zm0 16.454H23.48c-4.158 0-7.541-3.383-7.541-7.541s3.383-7.54 7.541-7.54h5.165c4.158 0 7.541 3.382 7.541 7.54s-3.383 7.541-7.541 7.541zM52.557 49.676h-5.165c-4.915 0-8.913 3.998-8.913 8.913s3.998 8.913 8.913 8.913h5.165c4.915 0 8.913-3.998 8.913-8.913s-3.998-8.913-8.913-8.913zm0 16.453h-5.165c-4.158 0-7.541-3.383-7.541-7.541s3.383-7.54 7.541-7.54h5.165c4.158 0 7.541 3.383 7.541 7.541s-3.383 7.54-7.541 7.54zM66.743 65.601c-.56-.002-1-.161-1.351-.517-.839-.852-.979-2.6-.962-3.229l-.226-21.173c-.022-.516.108-1.349.372-1.534.102-.073.318-.002.438.047l.492.202c1.869.77 2.993 1.217 4.172 1.211a.687.687 0 00.673-.7c-.008-.378-.297-.689-.7-.673-.89.008-1.86-.382-3.622-1.108l-.494-.203c-.839-.344-1.413-.136-1.748.1-.99.696-.968 2.385-.955 2.694l.226 21.122c-.004.112-.071 2.756 1.353 4.204.606.617 1.377.93 2.292.93l.06-.001c.379-.006.682-.317.676-.696s-.257-.67-.696-.676zM84.366 38.025c-.336-.236-.91-.444-1.747-.1l-.494.203c-1.762.726-2.742 1.118-3.622 1.108a.67.67 0 00-.7.673.687.687 0 00.673.7c1.183.026 2.303-.441 4.172-1.211l.492-.202c.119-.048.334-.119.437-.047.248.174.396.949.372 1.557l-.226 21.18c.019.599-.116 2.34-.96 3.198-.352.358-.809.511-1.353.519-.389-.046-.691.297-.696.676a.687.687 0 00.676.696l.06.001c.914 0 1.685-.313 2.292-.93 1.424-1.448 1.357-4.092 1.354-4.175l.226-21.128c.013-.334.035-2.022-.956-2.718zM85.011 30.122a.686.686 0 10-.528-1.266c-6.898 2.88-14.225 2.993-21.196.325a.684.684 0 00-.886.395.685.685 0 00.395.886c3.509 1.344 7.103 2.014 10.694 2.014 3.885.001 7.764-.785 11.521-2.354z"/><path class="st0" d="M73.933 29.876h.007a.685.685 0 00.679-.693l-.057-5.324a.686.686 0 00-.686-.679h-.007a.686.686 0 00-.679.693l.057 5.324c.004.376.31.679.686.679zM70.68 34.528a.688.688 0 00-.489.839 18.865 18.865 0 010 9.618.687.687 0 001.328.35 20.27 20.27 0 000-10.318.688.688 0 00-.839-.489zM77.129 34.528a.688.688 0 00-.839.489 20.27 20.27 0 000 10.318.687.687 0 001.328-.35 18.865 18.865 0 010-9.618.688.688 0 00-.489-.839zM74.067 53.56a5.035 5.035 0 00-5.029 5.029 5.035 5.035 0 005.029 5.029 5.035 5.035 0 005.03-5.029 5.035 5.035 0 00-5.03-5.029zm0 8.685a3.66 3.66 0 01-3.657-3.656c0-2.016 1.64-3.657 3.657-3.657s3.657 1.64 3.657 3.657a3.66 3.66 0 01-3.657 3.656zM24.09 75.036l1.433-1.56a.059.059 0 00.011-.062.057.057 0 00-.053-.034h-.53a.06.06 0 00-.043.019l-1.235 1.386v-1.348a.057.057 0 00-.057-.057h-.414a.057.057 0 00-.057.057v3.274c0 .032.026.057.057.057h.414a.057.057 0 00.057-.057V75.37l1.204 1.379c.011.013.027.02.044.02h.595a.058.058 0 00.053-.034.057.057 0 00-.01-.061l-1.469-1.638zM29.696 73.329c-1.122 0-1.793.888-1.793 1.746s.671 1.746 1.793 1.746c1.122 0 1.793-.888 1.793-1.746s-.671-1.746-1.793-1.746zm0 2.989c-.609 0-1.239-.466-1.239-1.244s.63-1.243 1.239-1.243c.609 0 1.239.465 1.239 1.243 0 .779-.63 1.244-1.239 1.244zM36.267 73.38a.057.057 0 00-.057.057v2.362l-1.661-2.395a.058.058 0 00-.047-.024h-.388a.057.057 0 00-.057.057v3.274c0 .032.026.057.057.057h.414a.057.057 0 00.057-.057V74.35l1.661 2.395a.058.058 0 00.047.024h.388a.057.057 0 00.057-.057v-3.274a.057.057 0 00-.057-.057h-.414zM41.975 75.97a.065.065 0 00-.042.016 1.171 1.171 0 01-.835.333c-.596 0-1.239-.476-1.239-1.244 0-.685.556-1.243 1.239-1.243.292 0 .577.114.806.321.022.02.059.02.08-.004l.28-.306a.057.057 0 00-.003-.081c-.291-.267-.737-.433-1.163-.433-1.122 0-1.793.888-1.793 1.746s.671 1.746 1.793 1.746c.418 0 .869-.174 1.176-.454a.057.057 0 00.004-.08l-.263-.297a.052.052 0 00-.04-.02zM46.945 73.38a.057.057 0 00-.057.057v1.347h-1.595v-1.347a.057.057 0 00-.057-.057h-.414a.057.057 0 00-.057.057v3.274c0 .032.026.057.057.057h.414a.057.057 0 00.057-.057v-1.425h1.595v1.425c0 .032.026.057.057.057h.414a.057.057 0 00.057-.057v-3.274a.057.057 0 00-.057-.057h-.414zM50.152 73.38a.057.057 0 00-.057.057v3.274c0 .032.026.057.057.057h.414a.057.057 0 00.057-.057v-3.274a.057.057 0 00-.057-.057h-.414zM54.246 75.036l1.433-1.56a.059.059 0 00.011-.062.057.057 0 00-.053-.034h-.53a.06.06 0 00-.043.019l-1.235 1.386v-1.348a.057.057 0 00-.057-.057h-.414a.057.057 0 00-.057.057v3.274c0 .032.026.057.057.057h.414a.057.057 0 00.057-.057V75.37l1.204 1.379c.011.013.027.02.044.02h.595a.058.058 0 00.053-.034.057.057 0 00-.01-.061l-1.469-1.638zM60.364 73.38a.057.057 0 00-.057.057v1.965c0 .423-.213.916-.812.916-.6 0-.813-.493-.813-.916v-1.965a.057.057 0 00-.057-.057h-.415a.057.057 0 00-.057.057v2.085c0 .74.572 1.298 1.332 1.298.782 0 1.35-.546 1.35-1.298v-2.085a.057.057 0 00-.057-.057h-.414zM64.798 74.9l-.414-.155c-.309-.115-.441-.255-.441-.467 0-.111.038-.472.533-.472.311 0 .52.21.572.575a.057.057 0 00.057.049h.388a.06.06 0 00.042-.018.052.052 0 00.015-.043c-.047-.652-.446-1.04-1.07-1.04-.53 0-1.065.33-1.065.962 0 .439.25.75.764.95l.417.164c.318.124.472.281.472.481 0 .262-.24.46-.559.46-.386 0-.582-.177-.619-.555a.057.057 0 00-.057-.052h-.414a.06.06 0 00-.042.018.064.064 0 00-.015.044c.051.649.462 1.022 1.126 1.022.652 0 1.108-.399 1.108-.97.001-.435-.268-.755-.798-.953zM70.322 73.38a.057.057 0 00-.057.057v1.347H68.67v-1.347a.057.057 0 00-.057-.057h-.414a.057.057 0 00-.057.057v3.274c0 .032.026.057.057.057h.414a.057.057 0 00.057-.057v-1.425h1.595v1.425c0 .032.026.057.057.057h.414a.057.057 0 00.057-.057v-3.274a.057.057 0 00-.057-.057h-.414zM75.171 73.329c-1.122 0-1.793.888-1.793 1.746s.671 1.746 1.793 1.746 1.793-.888 1.793-1.746-.67-1.746-1.793-1.746zm0 2.989c-.609 0-1.239-.466-1.239-1.244s.63-1.243 1.239-1.243c.609 0 1.239.465 1.239 1.243 0 .779-.63 1.244-1.239 1.244z"/></svg>