<svg xmlns="http://www.w3.org/2000/svg" xmlns:xlink="http://www.w3.org/1999/xlink" width="402.238" height="197.219"><symbol id="a" viewBox="-8.847 -6.705 17.693 13.409"><g fill="#00553C"><path d="M.976-1.962a5.257 5.257 0 00-.845-.096l-.003.309c-.001.095-.065.172-.173.17a.172.172 0 01-.17-.173l.003-.308a5.298 5.298 0 00-.814.066.173.173 0 01-.2-.139c.013-.332.676-.258 1.017-.277l.004-.396a.172.172 0 01.344.003l-.004.397c.305.013.61.045.912.109a.171.171 0 11-.071.335zM-.163 4.68c.32-.13 3.943.557 2.748.905a7.355 7.355 0 00-1.069-.347l.14 1.152c.031.221-.318.263-.34.042L1.16 5.157a6.882 6.882 0 00-2.519-.027l-.181 1.254c-.029.221-.375.171-.34-.049l.163-1.126c-.335.076-.668.17-.998.296a.17.17 0 01-.221-.099.17.17 0 01.099-.221A7.43 7.43 0 01-.163 4.68zM-.143 2.969a7.43 7.43 0 012.88.589.17.17 0 11-.132.316 7.143 7.143 0 00-2.468-.549l-.009.878A.172.172 0 01-.216 4.2l.01-.88a7.104 7.104 0 00-2.487.474c-1.163-.348 2.218-.934 2.55-.825z"/><path d="M1.295 2.456c.436-.622.811-1.287 1.118-1.983a7.292 7.292 0 01-4.15.133c.237.226.399.467.394.716-.024.419-.395.482-.641.523-.289.045-.437.099-.34.306.113.164.47.258.538.266l-.008.171-.114-.129.113.129.072.156c-.862.082-1.52-1.084-.318-1.238.292-.049.348-.081.355-.197.005-.22-.324-.546-.976-.969-.248-.107-.302-.37-.042-.412C-.954.634.892.711 2.66.023c.134-.057.279.091.221.224C2.792.563 1.32 3.63 1.295 2.456zM-5.001 4.613a5.213 5.213 0 00-2.003-.032.17.17 0 01-.199-.139c.015-.368.831-.236 1.119-.286.386 0 .772.04 1.154.121a.172.172 0 01-.071.336zM-6.78-3.834a.864.864 0 00-.646.27c-.438.461-.412 1.356-.412 1.37l.008 1.098c.196-.09.528-.074.688-.098.241.031.943-.005.891.353a.172.172 0 01-.219.105 2.035 2.035 0 00-1.297-.017c-.021.007-.041-.004-.061-.005l.005.696c.198-.079.513-.064.667-.087.241.031.943-.005.891.353a.171.171 0 01-.219.105A2.035 2.035 0 00-7.781.292C-7.794.298-7.806.29-7.82.291l.003.352c-.01 1.01-.541 1.493-.741 1.223a.173.173 0 01.052-.236c.015-.009.353-.24.346-.984-.007-.672-.021-2.832-.021-2.832-.002-.043-.032-1.046.505-1.613.232-.245.533-.372.893-.377.221-.004.224.342.003.342zM-5.283-2.186c-.002-.043-.032-1.046.505-1.613.232-.245.533-.372.893-.377.221-.004.224.343.003.343a.864.864 0 00-.646.27c-.439.461-.412 1.356-.412 1.37l.007 1.098c.196-.09.528-.074.688-.098.241.031.943-.005.891.353a.171.171 0 01-.219.105 2.032 2.032 0 00-1.296-.017c-.021.007-.04-.004-.061-.005l.005.696c.198-.079.513-.064.667-.087.241.031.943-.005.891.353a.171.171 0 01-.219.105A2.035 2.035 0 00-4.883.293c-.014.004-.026-.004-.04-.003l.003.352c-.01 1.01-.541 1.493-.74 1.223a.173.173 0 01.052-.236c.015-.009.353-.24.345-.984-.006-.67-.02-2.831-.02-2.831z"/><path d="M-5.352 6.614h-1.291c-2.938-.077-2.938-4.379 0-4.456h1.291c2.937.077 2.937 4.38 0 4.456zm0-4.113h-1.291c-2.477.044-2.477 3.726 0 3.77h1.291c2.477-.044 2.476-3.725 0-3.77zM.625.081H-.666c-2.938-.077-2.938-4.379 0-4.456H.625c2.938.077 2.938 4.379 0 4.456zm0-4.113H-.666c-2.477.044-2.477 3.726 0 3.77H.625A1.888 1.888 0 002.51-2.147 1.888 1.888 0 00.625-4.032z"/><path d="M3.833-3.77c-.21.213-.245.65-.24.807l-.057 5.292c.02.32.02.485.325.321.468-.192.749-.304 1.044-.302.095.002.17.08.168.175a.167.167 0 01-.175.168c-.625-.018-1.681 1.023-1.705-.371l.057-5.28c-.001-.027-.018-.688.338-1.05a.771.771 0 01.573-.233c.1-.006.186.074.184.174-.009.263-.399.113-.512.299zM8.016 2.968c-.44-.181-.685-.279-.906-.277-.228.008-.225-.342-.006-.343.296-.018.721.169 1.166.353.188.091.196-.189.202-.377L8.416-2.97c.021-.24-.105-.977-.578-.93-.233.018-.222-.364.01-.343.229 0 .421.078.573.232.356.362.339 1.023.338 1.044l.057 5.281c.034.36-.18.994-.8.654zM8.605 5.286a7.007 7.007 0 00-5.298-.082.17.17 0 01-.221-.099.17.17 0 01.099-.221 7.443 7.443 0 012.673-.503c.32-.131 3.943.557 2.747.905z"/><path d="M5.968 5.031c.095 0 .173.078.172.173l-.014 1.331a.172.172 0 01-.344-.003L5.797 5.2a.17.17 0 01.171-.169zM5.033 1.254a.172.172 0 01.332-.087 5.055 5.055 0 010 2.579.171.171 0 11-.332-.088 4.709 4.709 0 000-2.404zM6.767 3.868a.173.173 0 01-.21-.122 5.055 5.055 0 010-2.579.172.172 0 01.332.087 4.709 4.709 0 000 2.404.17.17 0 01-.122.21zM6.002-.89c-1.652-.029-1.652-2.485 0-2.514 1.652.029 1.652 2.485 0 2.514zm0-2.171c-1.195.006-1.195 1.822 0 1.828 1.195-.006 1.195-1.821 0-1.828zM3.863-6.42a.238.238 0 01-.178.196c-.074.028-.227.069-.214.155.011.17.246.158.29-.038.012.005.116-.014.111.015-.068.58-.916.058-.342-.217.075-.028.235-.079.223-.161-.004-.159-.304-.154-.295.024.003.023-.12.014-.128.008-.005-.107.057-.174.139-.217a.213.213 0 01.082-.029c.021-.004.034-.02.056-.02.172-.005.262.112.265.235.002.016-.005.032-.009.049zM-6.133-5.868c.009.009.002.025-.01.024-.006-.002-.143.005-.143-.005l-.309-.346c-.007.005.017.367-.015.351-.012-.006-.121.014-.117-.015v-.818c-.004-.03.105-.007.118-.014.031-.015.007.343.014.35l.301-.345c-.001-.01.154-.003.16-.005.004 0-.007.012-.006.014h.006l-.01.012c-.017.069-.351.394-.346.407l.357.39zm-.474-.363l-.003-.002v.006l.003-.004zM-5.09-5.831c-.591-.007-.591-.866 0-.873.592.007.592.865 0 .873zm0-.748c-.402-.009-.403.631 0 .622.403.009.403-.631 0-.622zM-3.329-5.859c.004.029-.105.008-.118.014a.014.014 0 01-.014-.014v-.59l-.416.599c-.007.008-.128.017-.123-.009v-.818c0-.008.006-.014.014-.014.012.006.122-.014.118.014v.59l.415-.599c.003-.012.1-.004.109-.006.038.004.003.814.015.833zM-2.02-6.491c-.187-.176-.523-.07-.529.224-.007.258.322.413.511.231.019-.021.077.071.09.077.005.006.005.015-.001.02-.277.208-.516.101-.64-.087-.014-.017-.022-.034-.033-.052-.124-.249-.057-.593.382-.625.091.003.238.041.282.122l.003.001v.001c.002.004.01.005.011.009-.006.003-.069.083-.076.079zm-.28-.175c-.032.005-.065.005-.094.017.029-.011.062-.011.094-.017zm-.158.746c-.025-.014-.043-.035-.064-.053.021.018.037.039.064.053zM-.66-5.859c.004.029-.105.008-.118.014-.031.015-.007-.343-.014-.35h-.399c-.007.006.017.367-.014.351-.012-.006-.122.014-.118-.015v-.818c0-.008.006-.014.014-.014.012.006.122-.014.118.014v.356h.399v-.356c-.003-.028.105-.009.118-.014.037.003.003.813.014.832zM.127-5.844C.115-5.85.006-5.83.01-5.859v-.818c-.004-.03.105-.007.118-.014.008 0 .014.006.014.014-.012.017.022.832-.015.833zM1.406-5.868c.008.008.001.024-.011.024-.006-.002-.143.005-.143-.005l-.309-.347c-.007.006.017.368-.014.352-.013-.006-.122.014-.118-.015v-.818c-.004-.03.105-.007.118-.014.031-.015.007.343.014.35l.301-.345c-.001-.01.154-.003.16-.005.004 0-.007.012-.006.014h.006l-.01.012c-.017.068-.351.394-.347.407l.359.39zM2.694-5.859a.014.014 0 01-.014.014c-.013-.005-.121.015-.118-.014-.037-.187.125-.714-.203-.72-.329.007-.165.532-.203.72a.014.014 0 01-.014.014c-.012-.005-.122.015-.118-.014.015-.271-.108-.86.333-.846.449-.017.321.572.337.846zM5.184-5.859c.004.029-.105.008-.118.014-.031.015-.007-.343-.014-.35h-.399c-.007.006.017.367-.015.351-.012-.006-.121.014-.117-.015v-.818c0-.008.006-.014.014-.014.012.006.122-.014.118.014v.356h.399v-.356c-.004-.028.104-.009.117-.014.038.003.003.813.015.832zM6.278-5.831c-.591-.007-.591-.866 0-.873.591.007.591.865 0 .873zm0-.748c-.402-.009-.403.631 0 .622.403.009.402-.631 0-.622z"/></g></symbol><path fill="#B38578" d="M81.709 196.785a2.953 2.953 0 002.585-3.265L62.1 2.605A2.953 2.953 0 0058.835.02a2.953 2.953 0 00-2.585 3.265L78.444 194.2a2.953 2.953 0 003.265 2.585z"/><path fill="#FFC800" d="M80.033 141.15l-.728-6.269-10.272 1.195-4.882-41.994 10.272-1.194-.729-6.268-10.272 1.194-3.745-32.211 10.272-1.194-.728-6.268-10.272 1.194-3.863-33.226 10.272-1.194-.728-6.268-10.272 1.194L53.267.457 0 6.649l17.571 151.145 53.267-6.193-1.077-9.257z"/><g fill="#00553C"><path d="M23.592 46.338a.394.394 0 00.5.248.394.394 0 00.248-.5 11.932 11.932 0 01-.46-1.903c.326-.082 1.153.032 1.063-.533-.064-.548-.827-.263-1.163-.25a12.024 12.024 0 01-.045-1.88.396.396 0 00-.788-.048c-.042.68-.021 1.357.044 2.028-.349.094-1.302-.037-1.234.55v.004c.079.594.976.222 1.343.227.114.695.266 1.383.492 2.057zM41.853 48.292a.394.394 0 00.151-.537 16.943 16.943 0 01-1.076-2.349l2.668.016c.511.011.518-.796.005-.789l-2.954-.017a15.88 15.88 0 01-.73-5.744l2.816-.746c.495-.124.291-.901-.202-.762l-2.529.67c.086-.784.21-1.571.41-2.357a.394.394 0 10-.764-.195c-1.111 4.354-.535 8.732 1.669 12.659.106.19.346.258.536.151zM36.509 36.179a.394.394 0 10-.765-.195 17.14 17.14 0 00-.44 6.239c.258 2.217.964 4.38 2.109 6.42a.394.394 0 10.688-.386 16.393 16.393 0 01-1.91-5.491l2.003-.255a.394.394 0 00.342-.437v-.004a.396.396 0 00-.441-.342l-2.007.255a16.316 16.316 0 01.421-5.804zM29.458 49.816c.124.096.293.11.43.035a27.398 27.398 0 005.151-3.62.395.395 0 00-.525-.589 26.642 26.642 0 01-4.231 3.079c.658-3.241.384-6.477-.798-9.513.578.482 1.17.787 1.737.709.951-.165.995-1.031 1.024-1.603.027-.543.063-.79.293-.879.577-.202 1.018 1.009 1.067 1.179l.387-.064-.324-.225.324.225.375.123c.106-.317-.394-1.275-.798-1.661-1.154-1.013-2.21.066-2.111 1.263-.034.679-.093.817-.357.863-.502.069-1.334-.595-2.472-1.971-.273-.33-.453-.548-.756-.374a.394.394 0 00-.148.535c2.102 3.747 2.652 7.923 1.592 12.078a.4.4 0 00.14.41zM37.021 30.942c.155.487.92.231.748-.251a11.974 11.974 0 01-.605-4.565.395.395 0 00-.788-.048c-.1 1.654.116 3.291.645 4.864zM18.451 27.324c.938-1.124 2.988-1.302 3.02-1.305l2.525-.276a5.375 5.375 0 00.458 3.357.395.395 0 00.71-.344c-.499-.972-.537-2.039-.383-3.098l1.595-.173a5.354 5.354 0 00.464 3.308.395.395 0 00.71-.344c-.481-.956-.554-2.006-.382-3.049l.788-.084c2.283-.265 3.279-1.674 2.596-2.016a.397.397 0 00-.525.182c-.018.036-.454.871-2.154 1.05-1.536.162-6.474.703-6.474.703-.977.005-4.579.968-4.176 3.715.043.51.843.43.785-.078-.061-.611.084-1.117.443-1.548zM18.777 35.489c-.362-2.178 2.898-2.859 3.464-2.852l2.525-.276a5.375 5.375 0 00.458 3.357.395.395 0 00.71-.344c-.499-.972-.537-2.039-.383-3.098l1.595-.173a5.354 5.354 0 00.464 3.308.395.395 0 00.71-.344c-.481-.956-.554-2.006-.382-3.049l.788-.084c2.283-.265 3.28-1.674 2.596-2.016a.397.397 0 00-.525.182c-.018.036-.455.871-2.154 1.05-1.536.162-6.474.703-6.474.703-.977.005-4.579.968-4.176 3.715.042.509.842.429.784-.079z"/><path d="M32.07 30.541c.995 6.699 10.745 5.566 10.176-1.183l-.343-2.948a5.128 5.128 0 00-5.679-4.497 5.128 5.128 0 00-4.497 5.68l.343 2.948zm4.245-7.845A4.338 4.338 0 0141.12 26.5l.343 2.948c.481 5.709-7.768 6.668-8.609 1.001l-.343-2.948a4.34 4.34 0 013.804-4.805zM24.417 50.422a5.127 5.127 0 004.496-5.68l-.343-2.948c-.995-6.699-10.745-5.566-10.176 1.183l.343 2.948a5.128 5.128 0 005.68 4.497zm-4.896-4.588l-.343-2.948c-.276-2.374 1.431-4.529 3.804-4.805s4.529 1.431 4.805 3.804l.343 2.948c.481 5.709-7.768 6.669-8.609 1.001zM22.749 52.329l12.072-1.534c.293-.047.777-.028.9.11.084.128-.055.406-.08.547-.236.988-.907 2.773.03 2.8a.385.385 0 00.338-.444c-.092-.47.202-1.487.475-2.437.397-1.334-1.235-1.496-1.774-1.357l-12.042 1.531c-.636-.002-3.012.669-2.685 2.456.059.494.857.43.782-.103-.036-.32.026-.582.205-.806.43-.536 1.418-.731 1.779-.763zM37.468 60.855c-.531-.958-.82-1.491-.873-1.994a.385.385 0 00-.43-.355c-.909.246.152 1.824.613 2.732.057.131.256.369.204.514-.083.153-.515.289-.864.316l-12.106 1.277c-.542.111-2.256.019-2.275-1.074-.015-.515-.853-.427-.785.08.083 1.809 2.572 1.923 3.16 1.776l12.076-1.273c.845-.03 2.215-.652 1.28-1.999zM41.325 49.507a.394.394 0 10-.764-.195 17.14 17.14 0 00-.44 6.239c.258 2.218.964 4.38 2.109 6.421.244.447.945.058.688-.386-2.102-3.747-2.653-7.922-1.593-12.079z"/><path d="M45.454 55.15a.396.396 0 00-.441-.342l-3.035.386a.394.394 0 00-.342.437v.004a.396.396 0 00.441.342l3.035-.386a.394.394 0 00.342-.437v-.004zM32.762 54.498a.396.396 0 00-.448.436c.036 1.011 6.953.253 6.449-.851a.394.394 0 00-.511-.223c-1.74.682-3.639.903-5.49.638zM38.857 57.318a11.65 11.65 0 00-5.89.685.395.395 0 00.288.734 10.841 10.841 0 015.491-.638c.503.08.62-.715.111-.781zM24.919 54.743c-3.774.539-3.128 6.084.668 5.742 3.774-.54 3.129-6.083-.668-5.742zm.576 4.958c-2.748.27-3.222-3.808-.485-4.175 2.749-.27 3.223 3.808.485 4.175z"/><g><path d="M37.197 79.252c.042.032.108-.005.1-.058-.012-.026-.05-.624-.093-.621l-1.666-1.17 1.468-.171c.122.011-.012-.467.003-.52a.063.063 0 00-.07-.055l-3.566.414a.062.062 0 00-.055.07c.027.051.007.543.122.506l1.461-.17-1.349 1.486a.066.066 0 00-.016.05c.044.163.02.846.185.682l1.597-1.807 1.879 1.364zM36.212 85.952c2.503-.323 2.055-4.166-.454-3.906-2.502.323-2.055 4.166.454 3.906zm-1.581-1.796c-.184-1.782 2.48-2.092 2.709-.315.184 1.783-2.481 2.091-2.709.315zM38.715 91.392c-.026-.051-.007-.544-.122-.506l-2.572.299 2.398-2.113c.056-.018-.037-.439-.029-.477a.063.063 0 00-.07-.055l-3.566.415c-.122-.011.012.467-.003.52a.063.063 0 00.07.055l2.572-.299-2.398 2.113c-.054.017.036.44.029.477a.063.063 0 00.07.055l3.566-.415a.062.062 0 00.055-.069zM36.26 97.856c.013-.026.331-.34.306-.37-.86-.725-.573-2.244.707-2.418a1.363 1.363 0 011.511 1.192c.103.494-.301.865-.233 1.006l.369.266c.34-.091.459-.97.412-1.335a1.92 1.92 0 00-2.128-1.732 1.92 1.92 0 00-1.674 2.174c.044.376.346 1.165.73 1.217zM40.067 103.023c-.026-.051-.008-.544-.122-.506l-1.467.171-.202-1.738 1.467-.171c.122.011-.012-.467.003-.52a.063.063 0 00-.07-.055l-3.566.415c-.122-.011.012.467-.003.52-.1.144 1.547-.145 1.621-.125l.202 1.738-1.552.18c-.121-.011.011.467-.003.52a.063.063 0 00.07.055l3.566-.414a.064.064 0 00.056-.07zM40.473 106.516c-.027-.05-.007-.543-.122-.506l-3.566.414c-.122-.011.012.467-.003.52a.063.063 0 00.07.055l3.566-.414a.061.061 0 00.055-.069zM41.016 112.097c.042.032.108-.005.1-.058-.012-.026-.05-.624-.093-.621l-1.667-1.17 1.468-.171c.122.011-.012-.467.003-.52a.063.063 0 00-.07-.055l-3.566.415a.063.063 0 00-.055.07c.027.051.007.543.122.506l1.461-.17-1.349 1.486c-.046-.006.066.677.059.698.004.052.076.076.11.035l1.597-1.807 1.88 1.362zM39.441 117.972l2.271-.264a.063.063 0 00.055-.07c-.027-.055-.007-.541-.122-.506l-2.14.249c-1.319.201-1.537-1.663-.206-1.771l2.14-.249c.121.01-.011-.464.003-.52a.063.063 0 00-.07-.055l-2.271.264c-1.871.214-1.524 3.153.34 2.922zM40.62 122.209c.084-.336.185-1.023.569-1.01.626-.124.904 1.036.028 1.216-.104.009.015.436.002.49a.064.064 0 00.074.055c1.446-.143 1.269-2.46-.185-2.335-.478.056-.785.367-.937.953-.085.339-.225 1.061-.589 1.051-.285.033-.531-.203-.572-.55-.049-.42.119-.657.527-.744a.063.063 0 00.049-.069c-.011-.021-.037-.499-.078-.494-.713.052-1.111.628-1.02 1.345.119 1.366 1.889 1.487 2.132.092zM43.027 128.484c-.026-.051-.008-.544-.122-.506l-1.467.171-.202-1.738 1.467-.171c.122.011-.012-.467.003-.52a.063.063 0 00-.07-.055l-3.566.414c-.122-.011.012.467-.003.52a.063.063 0 00.07.055l1.552-.18.202 1.738-1.552.18c-.121-.011.011.467-.003.52a.063.063 0 00.07.055l3.566-.415a.06.06 0 00.055-.068zM43.645 133.309c-.331-2.573-4.071-2.138-3.803.442.331 2.573 4.071 2.138 3.803-.442zM41.9 134.88c-1.79.186-2.098-2.47-.314-2.7 1.789-.186 2.098 2.47.314 2.7z"/></g></g><g fill="#B38578"><path d="M215.239 165.476v30.552c0 .655.536 1.19 1.19 1.19h3.227c.655 0 1.19-.536 1.19-1.19v-30.552h-5.607zM197.944 165.476v30.552c0 .655.536 1.19 1.19 1.19h3.227c.655 0 1.19-.536 1.19-1.19v-30.552h-5.607z"/></g><path fill="#B38578" d="M323.279 165.476v30.552c0 .655.536 1.19 1.19 1.19h3.227c.655 0 1.19-.536 1.19-1.19v-30.552h-5.607zM89.904 165.476v30.552c0 .655.536 1.19 1.19 1.19h3.227c.655 0 1.19-.536 1.19-1.19v-30.552h-5.607zM323.279 41.758h5.607v96.308h-5.607zM89.904 41.758h5.607v96.308h-5.607z"/><path fill="#E4DBD5" d="M340.083 37.942a4.363 4.363 0 01-4.35 4.35H84.457a4.363 4.363 0 01-4.35-4.35v-19.99a4.363 4.363 0 014.35-4.35h251.277a4.363 4.363 0 014.35 4.35v19.99z"/><path fill="#00553C" d="M338.683 168.418v-27.444a4.446 4.446 0 00-4.433-4.433H84.54a4.446 4.446 0 00-4.433 4.433c-.004 6.819-.001 31.495.012 37.845.001.293.117.575.325.783l2.255 2.254a1.108 1.108 0 001.599-.034l2.31-2.519 2.553 2.553a1.104 1.104 0 001.599-.034l2.31-2.52 2.553 2.553a1.11 1.11 0 001.599-.033l2.31-2.52 2.553 2.553a1.104 1.104 0 001.599-.034l2.31-2.519 2.554 2.553a1.104 1.104 0 001.599-.034l2.31-2.52 2.553 2.553a1.11 1.11 0 001.599-.033l2.31-2.52 2.553 2.553a1.104 1.104 0 001.599-.034l2.31-2.519 2.553 2.553a1.104 1.104 0 001.599-.034l2.31-2.52 2.553 2.553a1.11 1.11 0 001.599-.033l2.311-2.52 2.553 2.553a1.104 1.104 0 001.599-.034l2.31-2.519 2.553 2.553a1.104 1.104 0 001.599-.034l2.31-2.52 2.554 2.553a1.108 1.108 0 001.599-.034l2.31-2.519 2.554 2.553a1.104 1.104 0 001.599-.034l2.31-2.519 2.553 2.553a1.104 1.104 0 001.599-.034l2.31-2.52 2.553 2.553a1.104 1.104 0 001.599-.034l2.31-2.519 2.553 2.553a1.104 1.104 0 001.599-.034l2.31-2.519 2.554 2.553a1.104 1.104 0 001.599-.034l2.31-2.52 2.553 2.553a1.104 1.104 0 001.599-.034l2.31-2.519 2.553 2.553a1.104 1.104 0 001.599-.034l2.31-2.52 2.553 2.553a1.11 1.11 0 001.599-.033l2.311-2.52 2.553 2.553a1.104 1.104 0 001.599-.034l2.31-2.519 2.553 2.553a1.104 1.104 0 001.599-.034l2.31-2.52 2.553 2.553a1.11 1.11 0 001.599-.033l2.31-2.52 2.554 2.553a1.108 1.108 0 001.599-.034l2.31-2.519 2.554 2.553a1.104 1.104 0 001.599-.034l2.31-2.52 2.553 2.553a1.11 1.11 0 001.599-.033l2.31-2.52 2.553 2.553a1.112 1.112 0 001.6-.034l2.31-2.52 2.56 2.56a1.112 1.112 0 001.6-.034l2.314-2.517 2.55 2.55a1.11 1.11 0 001.6-.033l2.312-2.517 2.55 2.551a1.11 1.11 0 001.6-.033l2.314-2.518 2.55 2.551a1.11 1.11 0 001.6-.033l2.317-2.527 2.553 2.553a1.11 1.11 0 001.6-.033l2.31-2.52 2.553 2.553a1.11 1.11 0 001.6-.033l2.311-2.52 2.553 2.553a1.11 1.11 0 001.6-.033l2.311-2.52 2.553 2.553a1.11 1.11 0 001.6-.033l2.31-2.52 2.553 2.553a1.11 1.11 0 001.6-.033l2.311-2.52 2.553 2.553a1.11 1.11 0 001.6-.033l2.311-2.52 2.553 2.553a1.11 1.11 0 001.6-.033l2.31-2.52 2.553 2.553a1.11 1.11 0 001.6-.033l2.311-2.52 2.553 2.553a1.11 1.11 0 001.6-.033l2.018-2.196a1.11 1.11 0 00.293-.75c.015.009.015-10.448.014-10.449z"/><path fill="#E4DBD5" d="M101.237 182.76L111.59 50.444l1.3.101-10.353 132.316zM172.695 50.545l1.3-.101 10.377 132.302-1.299.102z"/><path fill="#B38578" d="M180.525 32.195a2.594 2.594 0 01-2.586 2.586h-70.574a2.594 2.594 0 01-2.586-2.586 2.594 2.594 0 012.586-2.586h70.574a2.593 2.593 0 012.586 2.586z"/><path fill="#FFC800" d="M180.558 37.707h-4.868V27.006h-5.542v10.701h-9.592V27.006h-5.541v10.701h-9.592V27.006h-5.541v10.701h-9.592V27.006h-5.541v10.701h-9.592V27.006h-5.541v10.701h-4.869L94.37 175.445h96.565z"/><use xlink:href="#a" width="17.693" height="13.409" x="-8.847" y="-6.705" transform="matrix(2.6844 0 0 -2.6844 142.653 103.861)" overflow="visible"/><path fill="#B7B0AA" d="M110.713 181.618c-.484-1.555-2.213-2.834-3.842-2.842-1.409-.01-4.871-.024-5.242-.026l-.164.001c.037-.003-3.775.024-4.749.025-1.629.008-3.358 1.287-3.842 2.842l-3.977 12.773c-.484 1.555.452 2.828 2.081 2.828 4.432-.034 9.809.025 14.107 0h7.526c1.629 0 2.565-1.272 2.081-2.828l-3.979-12.773z"/><path fill="#9E9893" d="M97.541 183.237c-.003.793-1.209.793-1.212 0 .003-.793 1.209-.793 1.212 0zM109.265 193.129c-.003.793-1.209.793-1.212 0 .003-.792 1.208-.792 1.212 0zM104.097 189.915c-.003.793-1.209.793-1.212 0 .003-.793 1.209-.793 1.212 0z"/><path fill="#7A7571" d="M107.352 186.741c-.003.793-1.209.793-1.212 0 .003-.793 1.209-.793 1.212 0zM97.342 191.99c-.003.793-1.209.793-1.212 0 .003-.793 1.209-.793 1.212 0z"/><g><path fill="#B7B0AA" d="M192.43 181.618c-.484-1.555-2.213-2.834-3.842-2.842-1.409-.01-4.871-.024-5.242-.026l-.164.001c.037-.003-3.775.024-4.749.025-1.629.008-3.358 1.287-3.842 2.842l-3.977 12.773c-.484 1.555.452 2.828 2.081 2.828 4.432-.034 9.809.025 14.107 0h7.526c1.629 0 2.565-1.272 2.081-2.828l-3.979-12.773z"/><path fill="#9E9893" d="M188.025 183.237c.003.793 1.209.793 1.212 0-.003-.793-1.209-.793-1.212 0zM176.301 193.129c.003.793 1.209.793 1.212 0-.003-.792-1.208-.792-1.212 0zM181.469 189.915c.003.793 1.209.793 1.212 0-.003-.793-1.209-.793-1.212 0z"/><path fill="#7A7571" d="M178.214 186.741c.003.793 1.209.793 1.212 0-.003-.793-1.209-.793-1.212 0zM188.224 191.99c.003.793 1.209.793 1.212 0-.003-.793-1.209-.793-1.212 0z"/></g><g><g fill="#B38578"><path d="M264.696 98.028c3 1.892 6.981-2.778 6.981-2.778s3.857-4.812-2.024-4.123c-5.65.662-7.355 5.388-4.957 6.901zM290.891 98.028c2.398-1.513.693-6.239-4.957-6.901-5.882-.689-2.024 4.123-2.024 4.123s3.981 4.67 6.981 2.778z"/><path d="M309.925 155.194a6.888 6.888 0 00-.658-1.744c2.389-21.587-8.318-43.381-9.911-47.27 4.9-1.344 12.17-7.709 7.842-11.383-1.132-1.302-2.957-2.55-5.064-3.277-4.122-1.421-11.832-4.228-12.649-2.274-.524 1.253 4.761 4.122 4.761 4.122l5.247 2.923c-1.913 1.213-3.528 2.43-4.89 5.107-2.851-1.301-5.726-1.208-5.726-1.208h-3.507c.062-1.107-.878-2.395-.878-2.395s-1.38-1.634-3.311-3.833c-1.379-1.57-2.92-1.727-3.696-1.69-.776-.036-2.317.12-3.696 1.69-1.931 2.199-3.311 3.833-3.311 3.833s-.939 1.288-.877 2.395h-2.886s-3.022-.104-5.941 1.304c-1.327-2.715-3.008-3.981-4.933-5.203l5.247-2.923s5.285-2.869 4.761-4.122c-.817-1.954-8.528.853-12.649 2.274-2.108.727-3.933 1.975-5.065 3.277-4.384 3.656 3.156 10.308 8.08 11.426l-.004.008c-1.561 3.818-12.286 25.694-9.887 47.219-1.42 3.813-5.863 21.088-1.305 25.572-.084 4.133 3.615 10.41 7.362 11.763 1.748.593 2.287-1.161.925-2.053-.368-.434-3.347-4.143-3.502-9.986 1.6-2.058.982-6.604.746-10.273a40.818 40.818 0 006.913 10.026v17.529c0 .655.536 1.19 1.19 1.19h3.227c.655 0 1.19-.536 1.19-1.19v-12.466c3.197 2.444 6.925 4.677 11.281 6.631 0 0 1.388.914 3.445.778 2.057.136 3.445-.778 3.445-.778 4.355-1.953 8.083-4.187 11.281-6.631v12.466c0 .655.536 1.19 1.19 1.19h3.227c.655 0 1.19-.536 1.19-1.19V178.5c2.929-3.139 5.202-6.51 6.913-10.026-.236 3.668-.854 8.215.746 10.273-.155 5.843-3.134 9.552-3.502 9.986-1.363.895-.82 2.646.925 2.053 3.751-1.358 7.444-7.625 7.362-11.763 4.478-3.911.137-20.533-.648-23.829z"/></g><path fill="#00553C" d="M295.503 111.936c-2.121-5.408-8.618-5.165-8.618-5.165h-18.181s-6.497-.243-8.618 5.165c-2.121 5.408-24.893 53.198 14.883 71.792 0 0 1.139.781 2.826.665 1.687.116 2.826-.665 2.826-.665 39.774-18.594 17.003-66.384 14.882-71.792z"/></g><g fill="#B38578"><path d="M362.112 55.923c2.304 1.179 4.656-3.512 2.754-4.843-2.344-1.444-5.211 3.515-2.754 4.843zM370.325 55.906c2.491-1.278-.275-6.295-2.644-4.904-1.931 1.286.313 6.03 2.644 4.904z"/><path d="M384.573 58.961s-4.736.832-8.828 1.579c3.117-1.583 10.462-4.699 11.651-7.36.386-2.658-4.252-.822-4.252-.822-.278.155-11.521 4.486-13.961 5.703-.943-3.054-4.947-3.053-5.889 0-2.407-1.195-13.724-5.579-13.961-5.703 0 0-4.639-1.836-4.252.821 1.186 2.659 8.533 5.776 11.651 7.36-4.093-.748-8.828-1.579-8.828-1.579s-4.914-.863-3.999 1.662c.567 1.565 8.733 5.353 10.962 5.854 1.64.369 6.112 1.267 8.568-.112V184.62l-13.557 7.075a1.195 1.195 0 00-.505 1.606l1.493 2.861c.303.58 1.026.807 1.606.505l13.466-7.028h.6l13.466 7.028c.58.303 1.303.076 1.606-.505l1.493-2.861a1.194 1.194 0 00-.505-1.606l-13.557-7.075V66.365c2.457 1.379 6.928.481 8.568.112 2.229-.501 10.396-4.289 10.962-5.854.916-2.525-3.998-1.662-3.998-1.662z"/></g><g fill="#B38578"><path d="M264.286 125.252c.271.102.533-.33.533-.33a3.976 3.976 0 011.142-1.299l.001.011c-.877 1.119-.906 2.524-.872 3.778-.005 1.733.858 2.63 1.132 1.148a6.007 6.007 0 01.453-1.949c1.076 1.72 3.039 1.829 3.312 1.835h.032c.27-.007 2.189-.118 3.272-1.782.216.524.381 1.139.435 1.896.275 1.48 1.137.587 1.132-1.149.028-1.228.02-2.578-.815-3.696l.003-.051c.375.283.75.671 1.083 1.256.049.146.659.708.642-.013v-.047-.047-.047-.047-.047-.047-.047-.047-.047-.047-.047-.047-.047-.047-.047-.047-.047-.047-.047-.047c.106-.59-.736-2.312-1.845-2.671-.029-.18-.065-.343-.1-.51.988-.537 1.405-2.086 1.292-3.02v-.142-.378-.142c-.001-.015.001-.032 0-.047-.038-1.105-.555-1.213-.727-.456-.177 1.144-.665 1.829-1.138 2.27l-.01-.024s-.196-.585-.809-.729c.251-.151.443-.431.419-.746a.076.076 0 000-.047.076.076 0 000-.047.076.076 0 000-.047.076.076 0 000-.047.076.076 0 000-.047.076.076 0 000-.047.076.076 0 000-.047.076.076 0 000-.047.076.076 0 000-.047.076.076 0 000-.047.076.076 0 000-.047.076.076 0 000-.047.076.076 0 000-.047.076.076 0 000-.047.076.076 0 000-.047.076.076 0 000-.047.076.076 0 000-.047.076.076 0 000-.047.076.076 0 000-.047.076.076 0 000-.047c.068-.859-1.181-1.211-1.576-.454-.089-.336-.468-1.815-.584-2.954.034-.189.096-.327.202-.375l-.006-.005c.447-.144 1.252-.702 1.101-1.115-.001-.015.003-.034 0-.047-.001-.015.003-.034 0-.047-.001-.015.003-.034 0-.047-.001-.015.003-.034 0-.047-.001-.015.003-.034 0-.047-.001-.015.003-.034 0-.047-.001-.015.003-.034 0-.047-.001-.015.003-.034 0-.047-.001-.015.003-.034 0-.047-.001-.015.003-.034 0-.047-.001-.015.003-.034 0-.047-.001-.015.003-.034 0-.047-.001-.015.003-.034 0-.047-.001-.015.003-.034 0-.047-.001-.015.003-.034 0-.047-.001-.015.003-.034 0-.047-.001-.015.003-.034 0-.047-.001-.015.003-.034 0-.047-.001-.015.003-.034 0-.047-.001-.015.003-.034 0-.047-.057-.494-.738.485-1.061.258.001-.014-.003-.02-.004-.031.002-.02.001-.033 0-.047.002-.02.001-.033 0-.047.002-.02.001-.033 0-.047.002-.02.001-.033 0-.047.002-.02.001-.033 0-.047.002-.02.001-.033 0-.047.002-.02.001-.033 0-.047.002-.02.001-.033 0-.047.002-.02.001-.033 0-.047.002-.02.001-.033 0-.047.002-.02.001-.033 0-.047.002-.02.001-.033 0-.047.002-.02.001-.033 0-.047.002-.02.001-.033 0-.047.002-.02.001-.033 0-.047.002-.02.001-.033 0-.047.036-.302-.369.117-.369.117-.228.228-.43.27-.554.275-.124-.005-.326-.047-.554-.275 0 0-.406-.419-.369-.117-.001.014-.002.027 0 .047-.001.014-.002.027 0 .047-.001.014-.002.027 0 .047-.001.014-.002.027 0 .047-.001.014-.002.027 0 .047-.001.014-.002.027 0 .047-.001.014-.002.027 0 .047-.001.014-.002.027 0 .047-.001.014-.002.027 0 .047-.001.014-.002.027 0 .047-.001.014-.002.027 0 .047-.001.014-.002.027 0 .047-.001.014-.002.027 0 .047-.001.014-.002.027 0 .047-.001.014-.002.027 0 .047-.001.014-.002.027 0 .047-.001.011-.005.017-.004.031-.324.226-1.003-.752-1.061-.258-.003.013.001.032 0 .047-.003.013.001.032 0 .047-.003.013.001.032 0 .047-.003.013.001.032 0 .047-.003.013.001.032 0 .047-.003.013.001.032 0 .047-.003.013.001.032 0 .047-.003.013.001.032 0 .047-.003.013.001.032 0 .047-.003.013.001.032 0 .047-.003.013.001.032 0 .047-.003.013.001.032 0 .047-.003.013.001.032 0 .047-.003.013.001.032 0 .047-.003.013.001.032 0 .047-.003.013.001.032 0 .047-.003.013.001.032 0 .047-.003.013.001.032 0 .047-.003.013.001.032 0 .047-.003.013.001.032 0 .047-.149.41.642.965 1.09 1.109l-.013.011c.106.047.168.184.202.373-.114 1.12-.483 2.57-.579 2.937-.41-.737-1.631-.372-1.564.476a.094.094 0 000 .047.094.094 0 000 .047.094.094 0 000 .047.094.094 0 000 .047.094.094 0 000 .047.094.094 0 000 .047.094.094 0 000 .047.094.094 0 000 .047.094.094 0 000 .047.094.094 0 000 .047.094.094 0 000 .047.094.094 0 000 .047.094.094 0 000 .047.094.094 0 000 .047.094.094 0 000 .047.094.094 0 000 .047.094.094 0 000 .047.094.094 0 000 .047.094.094 0 000 .047.094.094 0 000 .047c-.021.328.181.616.449.761-.553.122-.78.568-.819.667-.457-.439-.918-1.103-1.096-2.196-.178-.754-.694-.644-.723.459-.001.015 0 .032 0 .047-.001.015 0 .032 0 .047-.001.015 0 .032 0 .047-.001.015 0 .032 0 .047-.001.015 0 .032 0 .047-.001.015 0 .032 0 .047-.001.015 0 .032 0 .047-.001.015 0 .032 0 .047-.001.015 0 .032 0 .047-.001.015 0 .032 0 .047-.001.015 0 .032 0 .047-.001.015 0 .032 0 .047-.001.015 0 .032 0 .047-.001.015 0 .032 0 .047-.001.015 0 .032 0 .047-.001.015 0 .032 0 .047-.001.015 0 .032 0 .047-.001.015 0 .032 0 .047-.001.015 0 .032 0 .047-.001.015 0 .032 0 .047-.093.789.386 2.238 1.229 2.716-.038.177-.078.352-.109.545-1.13.322-2.018 2.088-1.906 2.694 0 .016-.001.032 0 .047 0 .016-.001.032 0 .047 0 .016-.001.032 0 .047 0 .016-.001.032 0 .047 0 .016-.001.032 0 .047 0 .016-.001.032 0 .047 0 .016-.001.032 0 .047 0 .016-.001.032 0 .047 0 .016-.001.032 0 .047 0 .016-.001.032 0 .047 0 .016-.001.032 0 .047 0 .016-.001.032 0 .047 0 .016-.001.032 0 .047 0 .016-.001.032 0 .047 0 .016-.001.032 0 .047 0 .016-.001.032 0 .047 0 .016-.001.032 0 .047 0 .016-.001.032 0 .047 0 .016-.001.032 0 .047 0 .016-.001.032 0 .047.002.196.04.324.111.351zM280.068 125.252c.271.102.533-.33.533-.33a3.976 3.976 0 011.142-1.299v.011c-.877 1.119-.907 2.524-.872 3.778-.005 1.733.858 2.63 1.132 1.148a6.033 6.033 0 01.453-1.949c1.076 1.72 3.039 1.829 3.312 1.835h.032c.27-.007 2.189-.118 3.272-1.782.216.524.381 1.139.435 1.896.275 1.48 1.137.587 1.132-1.149.028-1.228.02-2.577-.815-3.696l.003-.051c.375.283.75.671 1.083 1.256.049.145.659.708.642-.013v-.047-.047-.047-.047-.047-.047-.047-.047-.047-.047-.047-.047-.047-.047-.047-.047-.047-.047-.047-.047c.106-.59-.736-2.312-1.845-2.671-.029-.18-.065-.344-.1-.51.946-.506 1.405-2.036 1.292-2.926v-.802c-.038-1.103-.554-1.214-.727-.456-.177 1.144-.665 1.829-1.138 2.27l-.01-.024s-.196-.585-.809-.729c.25-.151.443-.431.419-.746a.076.076 0 000-.047.076.076 0 000-.047.076.076 0 000-.047.076.076 0 000-.047.076.076 0 000-.047.076.076 0 000-.047.076.076 0 000-.047.076.076 0 000-.047.076.076 0 000-.047.076.076 0 000-.047.076.076 0 000-.047.076.076 0 000-.047.076.076 0 000-.047.076.076 0 000-.047.076.076 0 000-.047.076.076 0 000-.047.076.076 0 000-.047.076.076 0 000-.047.076.076 0 000-.047.076.076 0 000-.047c.068-.859-1.181-1.21-1.576-.454-.089-.336-.468-1.815-.584-2.954.034-.189.096-.327.202-.375l-.006-.005c.447-.144 1.251-.702 1.101-1.115-.001-.015.003-.034 0-.047-.001-.015.003-.034 0-.047-.001-.015.003-.034 0-.047-.001-.015.003-.034 0-.047-.001-.015.003-.034 0-.047-.001-.015.003-.034 0-.047-.001-.015.003-.034 0-.047-.001-.015.003-.034 0-.047-.001-.015.003-.034 0-.047-.001-.015.003-.034 0-.047-.001-.015.003-.034 0-.047-.001-.015.003-.034 0-.047-.001-.015.003-.034 0-.047-.001-.015.003-.034 0-.047-.001-.015.003-.034 0-.047-.001-.015.003-.034 0-.047-.001-.015.003-.034 0-.047-.001-.015.003-.034 0-.047-.001-.015.003-.034 0-.047-.001-.015.003-.034 0-.047-.057-.494-.738.485-1.061.258.001-.014-.003-.02-.004-.031.002-.02.001-.033 0-.047.002-.02.001-.033 0-.047.002-.02.001-.033 0-.047.002-.02.001-.033 0-.047.002-.02.001-.033 0-.047.002-.02.001-.033 0-.047.002-.02.001-.033 0-.047.002-.02.001-.033 0-.047.002-.02.001-.033 0-.047.002-.02.001-.033 0-.047.002-.02.001-.033 0-.047.002-.02.001-.033 0-.047.002-.02.001-.033 0-.047.002-.02.001-.033 0-.047.002-.02.001-.033 0-.047.002-.02.001-.033 0-.047.036-.302-.369.117-.369.117-.228.228-.43.27-.554.275-.124-.005-.326-.047-.554-.275 0 0-.406-.419-.369-.117-.001.014-.002.027 0 .047-.001.014-.002.027 0 .047-.001.014-.002.027 0 .047-.001.014-.002.027 0 .047-.001.014-.002.027 0 .047-.001.014-.002.027 0 .047-.001.014-.002.027 0 .047-.001.014-.002.027 0 .047-.001.014-.002.027 0 .047-.001.014-.002.027 0 .047-.001.014-.002.027 0 .047-.001.014-.002.027 0 .047-.001.014-.002.027 0 .047-.001.014-.002.027 0 .047-.001.014-.002.027 0 .047-.001.014-.002.027 0 .047-.001.011-.005.017-.004.031-.324.226-1.003-.752-1.061-.258-.003.013.001.032 0 .047-.003.013.001.032 0 .047-.003.013.001.032 0 .047-.003.013.001.032 0 .047-.003.013.001.032 0 .047-.003.013.001.032 0 .047-.003.013.001.032 0 .047-.003.013.001.032 0 .047-.003.013.001.032 0 .047-.003.013.001.032 0 .047-.003.013.001.032 0 .047-.003.013.001.032 0 .047-.003.013.001.032 0 .047-.003.013.001.032 0 .047-.003.013.001.032 0 .047-.003.013.001.032 0 .047-.003.013.001.032 0 .047-.003.013.001.032 0 .047-.003.013.001.032 0 .047-.003.013.001.032 0 .047-.149.41.642.965 1.09 1.109l-.013.011c.106.047.168.184.202.373-.114 1.12-.482 2.57-.579 2.937-.41-.737-1.632-.372-1.564.476a.094.094 0 000 .047.094.094 0 000 .047.094.094 0 000 .047.094.094 0 000 .047.094.094 0 000 .047.094.094 0 000 .047.094.094 0 000 .047.094.094 0 000 .047.094.094 0 000 .047.094.094 0 000 .047.094.094 0 000 .047.094.094 0 000 .047.094.094 0 000 .047.094.094 0 000 .047.094.094 0 000 .047.094.094 0 000 .047.094.094 0 000 .047.094.094 0 000 .047.094.094 0 000 .047.094.094 0 000 .047c-.021.328.181.616.449.761-.553.122-.78.568-.819.667-.457-.439-.918-1.103-1.096-2.196-.178-.753-.693-.646-.723.459v.944c-.093.789.386 2.238 1.229 2.716-.038.177-.078.352-.109.545-1.13.322-2.018 2.088-1.906 2.694 0 .016-.001.032 0 .047 0 .016-.001.032 0 .047 0 .016-.001.032 0 .047 0 .016-.001.032 0 .047 0 .016-.001.032 0 .047 0 .016-.001.032 0 .047 0 .016-.001.032 0 .047 0 .016-.001.032 0 .047 0 .016-.001.032 0 .047 0 .016-.001.032 0 .047 0 .016-.001.032 0 .047 0 .016-.001.032 0 .047 0 .016-.001.032 0 .047 0 .016-.001.032 0 .047 0 .016-.001.032 0 .047 0 .016-.001.032 0 .047 0 .016-.001.032 0 .047 0 .016-.001.032 0 .047 0 .016-.001.032 0 .047 0 .016-.001.032 0 .047.003.191.041.319.112.346zM265.609 144.901c-.118.204-.198.403-.217.564-.004.018.002.03 0 .047-.004.018.002.03 0 .047-.004.018.002.03 0 .047-.004.018.002.03 0 .047-.004.018.002.03 0 .047-.004.018.002.03 0 .047-.004.018.002.03 0 .047-.004.018.002.03 0 .047-.004.018.002.03 0 .047-.004.018.002.03 0 .047-.004.018.002.03 0 .047-.004.018.002.03 0 .047-.004.018.002.03 0 .047-.004.018.002.03 0 .047-.004.018.002.03 0 .047-.004.018.002.03 0 .047-.004.018.002.03 0 .047-.004.018.002.03 0 .047-.004.018.002.03 0 .047-.004.018.002.03 0 .047-.092.479.329.44.558.109-.003.017.003.026.001.042-.003.018.002.03 0 .047-.003.018.002.03 0 .047-.003.018.002.03 0 .047-.003.018.002.03 0 .047-.003.018.002.03 0 .047-.003.018.002.03 0 .047-.003.018.002.03 0 .047-.003.018.002.03 0 .047-.003.018.002.03 0 .047-.003.018.002.03 0 .047-.003.018.002.03 0 .047-.003.018.002.03 0 .047-.003.018.002.03 0 .047-.003.018.002.03 0 .047-.003.018.002.03 0 .047-.003.018.002.03 0 .047-.003.018.002.03 0 .047-.003.018.002.03 0 .047-.003.018.002.03 0 .047-.077.68.521.271.735-.124.043.237.094.465.113.734.336 1.638 1.2.327 1.132-1.29.108-1.424-.223-3.392-1.525-4.296.192-.81.152-1.616.154-2.432.002-2.059-.804-3.905-.804-3.905s-.196-.585-.809-.729c.251-.151.443-.431.419-.746a.076.076 0 000-.047.076.076 0 000-.047.076.076 0 000-.047.076.076 0 000-.047.076.076 0 000-.047.076.076 0 000-.047.076.076 0 000-.047.076.076 0 000-.047.076.076 0 000-.047.076.076 0 000-.047.076.076 0 000-.047.076.076 0 000-.047.076.076 0 000-.047.076.076 0 000-.047.076.076 0 000-.047.076.076 0 000-.047.076.076 0 000-.047.076.076 0 000-.047.076.076 0 000-.047.076.076 0 000-.047c.069-.883-1.231-1.211-1.6-.419a6.14 6.14 0 00-1.357-.257s-.595.041-1.179.207c-.407-.742-1.634-.378-1.566.472a.094.094 0 000 .047.094.094 0 000 .047.094.094 0 000 .047.094.094 0 000 .047.094.094 0 000 .047.094.094 0 000 .047.094.094 0 000 .047.094.094 0 000 .047.094.094 0 000 .047.094.094 0 000 .047.094.094 0 000 .047.094.094 0 000 .047.094.094 0 000 .047.094.094 0 000 .047.094.094 0 000 .047.094.094 0 000 .047.094.094 0 000 .047.094.094 0 000 .047.094.094 0 000 .047.094.094 0 000 .047c-.021.315.167.593.418.743-.612.146-.807.729-.807.729s-.807 1.847-.804 3.905c.003.816-.037 1.622.154 2.432-1.338.934-1.629 2.93-1.525 4.391-.028 1.692.837 2.732 1.132 1.196.019-.269.069-.496.113-.734.214.395.812.804.735.124-.002-.017.004-.029 0-.047-.002-.017.004-.029 0-.047-.002-.017.004-.029 0-.047-.002-.017.004-.029 0-.047-.002-.017.004-.029 0-.047-.002-.017.004-.029 0-.047-.002-.017.004-.029 0-.047-.002-.017.004-.029 0-.047-.002-.017.004-.029 0-.047-.002-.017.004-.029 0-.047-.002-.017.004-.029 0-.047-.002-.017.004-.029 0-.047-.002-.017.004-.029 0-.047-.002-.017.004-.029 0-.047-.002-.017.004-.029 0-.047-.002-.017.004-.029 0-.047-.002-.017.004-.029 0-.047-.002-.017.004-.029 0-.047-.002-.017.004-.029 0-.047-.002-.016.005-.026.001-.042.229.331.65.37.558-.109-.002-.017.004-.029 0-.047-.002-.017.004-.029 0-.047-.002-.017.004-.029 0-.047-.002-.017.004-.029 0-.047-.002-.017.004-.029 0-.047-.002-.017.004-.029 0-.047-.002-.017.004-.029 0-.047-.002-.017.004-.029 0-.047-.002-.017.004-.029 0-.047-.002-.017.004-.029 0-.047-.002-.017.004-.029 0-.047-.002-.017.004-.029 0-.047-.002-.017.004-.029 0-.047-.002-.017.004-.029 0-.047-.002-.017.004-.029 0-.047-.002-.017.004-.029 0-.047-.002-.017.004-.029 0-.047-.002-.017.004-.029 0-.047-.002-.017.004-.029 0-.047-.002-.017.004-.029 0-.047-.019-.162-.1-.36-.218-.564a4.88 4.88 0 01.292-.334c1.093 1.089 2.553 1.169 2.786 1.175h.032c.232-.006 1.693-.087 2.786-1.175.099.1.196.214.292.333zM280.959 144.9a1.606 1.606 0 00-.218.564c-.004.018.002.03 0 .047-.004.018.002.03 0 .047-.004.018.002.03 0 .047-.004.018.002.03 0 .047-.004.018.002.03 0 .047-.004.018.002.03 0 .047-.004.018.002.03 0 .047-.004.018.002.03 0 .047-.004.018.002.03 0 .047-.004.018.002.03 0 .047-.004.018.002.03 0 .047-.004.018.002.03 0 .047-.004.018.002.03 0 .047-.004.018.002.03 0 .047-.004.018.002.03 0 .047-.004.018.002.03 0 .047-.004.018.002.03 0 .047-.004.018.002.03 0 .047-.004.018.002.03 0 .047-.004.018.002.03 0 .047-.092.479.329.44.558.109-.003.017.003.026.001.042-.004.018.002.03 0 .047-.004.018.002.03 0 .047-.004.018.002.03 0 .047-.004.018.002.03 0 .047-.004.018.002.03 0 .047-.004.018.002.03 0 .047-.004.018.002.03 0 .047-.004.018.002.03 0 .047-.004.018.002.03 0 .047-.004.018.002.03 0 .047-.004.018.002.03 0 .047-.004.018.002.03 0 .047-.004.018.002.03 0 .047-.004.018.002.03 0 .047-.004.018.002.03 0 .047-.004.018.002.03 0 .047-.004.018.002.03 0 .047-.004.018.002.03 0 .047-.004.018.002.03 0 .047-.077.68.521.271.735-.124.043.237.094.465.113.734.336 1.638 1.2.327 1.133-1.29.108-1.424-.223-3.392-1.525-4.296.192-.81.152-1.616.154-2.432.003-2.059-.804-3.905-.804-3.905s-.196-.585-.809-.729c.251-.151.443-.431.419-.746a.076.076 0 000-.047.076.076 0 000-.047.076.076 0 000-.047.076.076 0 000-.047.076.076 0 000-.047.076.076 0 000-.047.076.076 0 000-.047.076.076 0 000-.047.076.076 0 000-.047.076.076 0 000-.047.076.076 0 000-.047.076.076 0 000-.047.076.076 0 000-.047.076.076 0 000-.047.076.076 0 000-.047.076.076 0 000-.047.076.076 0 000-.047.076.076 0 000-.047.076.076 0 000-.047.076.076 0 000-.047c.069-.882-1.231-1.211-1.599-.419a6.075 6.075 0 00-1.357-.257s-.595.041-1.179.207c-.407-.742-1.634-.378-1.566.472a.094.094 0 000 .047.094.094 0 000 .047.094.094 0 000 .047.094.094 0 000 .047.094.094 0 000 .047.094.094 0 000 .047.094.094 0 000 .047.094.094 0 000 .047.094.094 0 000 .047.094.094 0 000 .047.094.094 0 000 .047.094.094 0 000 .047.094.094 0 000 .047.094.094 0 000 .047.094.094 0 000 .047.094.094 0 000 .047.094.094 0 000 .047.094.094 0 000 .047.094.094 0 000 .047.094.094 0 000 .047c-.021.315.167.593.418.743-.612.146-.807.729-.807.729s-.807 1.847-.804 3.905c.003.816-.037 1.622.154 2.432-1.338.934-1.629 2.93-1.525 4.391-.028 1.692.837 2.732 1.132 1.196.019-.269.07-.496.113-.734.214.395.812.804.735.124-.002-.017.004-.029 0-.047-.002-.017.004-.029 0-.047-.002-.017.004-.029 0-.047-.002-.017.004-.029 0-.047-.002-.017.004-.029 0-.047-.002-.017.004-.029 0-.047-.002-.017.004-.029 0-.047-.002-.017.004-.029 0-.047-.002-.017.004-.029 0-.047-.002-.017.004-.029 0-.047-.002-.017.004-.029 0-.047-.002-.017.004-.029 0-.047-.002-.017.004-.029 0-.047-.002-.017.004-.029 0-.047-.002-.017.004-.029 0-.047-.002-.017.004-.029 0-.047-.002-.017.004-.029 0-.047-.002-.017.004-.029 0-.047-.002-.017.004-.029 0-.047-.002-.016.005-.026.001-.042.229.331.65.37.558-.109-.002-.017.004-.029 0-.047-.002-.017.004-.029 0-.047-.002-.017.004-.029 0-.047-.002-.017.004-.029 0-.047-.002-.017.004-.029 0-.047-.002-.017.004-.029 0-.047-.002-.017.004-.029 0-.047-.002-.017.004-.029 0-.047-.002-.017.004-.029 0-.047-.002-.017.004-.029 0-.047-.002-.017.004-.029 0-.047-.002-.017.004-.029 0-.047-.002-.017.004-.029 0-.047-.002-.017.004-.029 0-.047-.002-.017.004-.029 0-.047-.002-.017.004-.029 0-.047-.002-.017.004-.029 0-.047-.002-.017.004-.029 0-.047-.002-.017.004-.029 0-.047-.002-.017.004-.029 0-.047-.019-.161-.1-.36-.217-.564.096-.119.193-.232.291-.334 1.093 1.089 2.553 1.169 2.785 1.175h.032c.232-.006 1.693-.087 2.786-1.175.099.101.196.215.292.333zM298.63 145.974c.067-1.102-.522-2.831-1.525-3.494.192-.81.152-1.616.154-2.432.002-2.059-.804-3.905-.804-3.905s-.196-.585-.809-.729c.25-.151.443-.431.419-.746a.076.076 0 000-.047.076.076 0 000-.047.076.076 0 000-.047.076.076 0 000-.047.076.076 0 000-.047.076.076 0 000-.047.076.076 0 000-.047.076.076 0 000-.047.076.076 0 000-.047.076.076 0 000-.047.076.076 0 000-.047.076.076 0 000-.047.076.076 0 000-.047.076.076 0 000-.047.076.076 0 000-.047.076.076 0 000-.047.076.076 0 000-.047.076.076 0 000-.047.076.076 0 000-.047.076.076 0 000-.047c.069-.882-1.23-1.211-1.6-.419a6.14 6.14 0 00-1.357-.257s-.595.041-1.179.207c-.407-.742-1.634-.378-1.566.472a.094.094 0 000 .047.094.094 0 000 .047.094.094 0 000 .047.094.094 0 000 .047.094.094 0 000 .047.094.094 0 000 .047.094.094 0 000 .047.094.094 0 000 .047.094.094 0 000 .047.094.094 0 000 .047.094.094 0 000 .047.094.094 0 000 .047.094.094 0 000 .047.094.094 0 000 .047.094.094 0 000 .047.094.094 0 000 .047.094.094 0 000 .047.094.094 0 000 .047.094.094 0 000 .047.094.094 0 000 .047c-.021.315.167.593.418.743-.612.146-.807.729-.807.729s-.807 1.847-.804 3.905c.003.817-.037 1.622.154 2.432-1.338.934-1.629 2.93-1.525 4.391-.028 1.692.837 2.732 1.132 1.196.019-.269.069-.496.113-.734.214.395.812.804.735.124-.002-.017.004-.029 0-.047-.002-.017.004-.029 0-.047-.002-.017.004-.029 0-.047-.002-.017.004-.029 0-.047-.002-.017.004-.029 0-.047-.002-.017.004-.029 0-.047-.002-.017.004-.029 0-.047-.002-.017.004-.029 0-.047-.002-.017.004-.029 0-.047-.002-.017.004-.029 0-.047-.002-.017.004-.029 0-.047-.002-.017.004-.029 0-.047-.002-.017.004-.029 0-.047-.002-.017.004-.029 0-.047-.002-.017.004-.029 0-.047-.002-.017.004-.029 0-.047-.002-.017.004-.029 0-.047-.002-.017.004-.029 0-.047-.002-.017.004-.029 0-.047-.002-.016.005-.026.001-.042.229.331.651.371.558-.109-.002-.017.004-.029 0-.047-.002-.017.004-.029 0-.047-.002-.017.004-.029 0-.047-.002-.017.004-.029 0-.047-.002-.017.004-.029 0-.047-.002-.017.004-.029 0-.047-.002-.017.004-.029 0-.047-.002-.017.004-.029 0-.047-.002-.017.004-.029 0-.047-.002-.017.004-.029 0-.047-.002-.017.004-.029 0-.047-.002-.017.004-.029 0-.047-.002-.017.004-.029 0-.047-.002-.017.004-.029 0-.047-.002-.017.004-.029 0-.047-.002-.017.004-.029 0-.047-.002-.017.004-.029 0-.047-.002-.017.004-.029 0-.047-.002-.017.004-.029 0-.047-.002-.017.004-.029 0-.047-.019-.162-.1-.36-.217-.564.096-.119.193-.232.291-.334 1.093 1.089 2.553 1.169 2.786 1.175h.032c.232-.006 1.693-.087 2.786-1.175.098.101.195.215.291.333-.118.204-.198.403-.217.564-.004.018.002.03 0 .047-.004.018.002.03 0 .047-.004.018.002.03 0 .047-.004.018.002.03 0 .047-.004.018.002.03 0 .047-.004.018.002.03 0 .047-.004.018.002.03 0 .047-.004.018.002.03 0 .047-.004.018.002.03 0 .047-.004.018.002.03 0 .047-.004.018.002.03 0 .047-.004.018.002.03 0 .047-.004.018.002.03 0 .047-.004.018.002.03 0 .047-.004.018.002.03 0 .047-.004.018.002.03 0 .047-.004.018.002.03 0 .047-.004.018.002.03 0 .047-.004.018.002.03 0 .047-.004.018.002.03 0 .047-.092.479.329.44.558.109-.003.017.003.026.001.042-.004.018.002.03 0 .047-.004.018.002.03 0 .047-.004.018.002.03 0 .047-.004.018.002.03 0 .047-.004.018.002.03 0 .047-.004.018.002.03 0 .047-.004.018.002.03 0 .047-.004.018.002.03 0 .047-.004.018.002.03 0 .047-.004.018.002.03 0 .047-.004.018.002.03 0 .047-.004.018.002.03 0 .047-.004.018.002.03 0 .047-.004.018.002.03 0 .047-.004.018.002.03 0 .047-.004.018.002.03 0 .047-.004.018.002.03 0 .047-.004.018.002.03 0 .047-.004.018.002.03 0 .047-.077.68.521.271.735-.124.043.237.094.465.113.734.275 1.48 1.137.586 1.133-1.149v-.943zM290.532 162.986a2.492 2.492 0 00-.539-.326c.935-.633 1.204-2.059 1.117-2.979v-.519c0-.031.001-.064 0-.094-.038-1.105-.555-1.212-.727-.456-.181 1.174-.688 1.858-1.172 2.296.034-.105.072-.22.058-.336a.094.094 0 000-.047.094.094 0 000-.047.094.094 0 000-.047.094.094 0 000-.047.094.094 0 000-.047.094.094 0 000-.047.094.094 0 000-.047.094.094 0 000-.047.094.094 0 000-.047.094.094 0 000-.047.094.094 0 000-.047.094.094 0 000-.047.094.094 0 000-.047.094.094 0 000-.047.094.094 0 000-.047.094.094 0 000-.047.094.094 0 000-.047.094.094 0 000-.047.094.094 0 000-.047.094.094 0 000-.047c.016-.212-.072-.41-.187-.568.185-.617.301-1.31.252-1.976v-.047-.047-.047-.047-.047-.047-.047-.047-.047-.047-.047-.047-.047-.047-.047-.047-.047-.047-.047-.047-.002c-.049-1.762-1.952-4.648-2.361-3.343-.002.016 0 .031 0 .047-.002.015 0 .031 0 .047-.002.015 0 .031 0 .047-.002.016 0 .031 0 .047-.002.015 0 .031 0 .047-.002.015 0 .031 0 .047-.002.016 0 .031 0 .047-.002.015 0 .031 0 .047-.002.016 0 .031 0 .047-.002.015 0 .031 0 .047-.002.015 0 .031 0 .047-.002.016 0 .031 0 .047-.002.015 0 .031 0 .047-.002.015 0 .031 0 .047-.002.016 0 .031 0 .047-.002.015 0 .031 0 .047-.002.015 0 .031 0 .047-.002.016 0 .031 0 .047-.002.015 0 .031 0 .047-.002.016 0 .031 0 .047-.027.221.105.48.105.48s.177.293.411.927c-.263-.108-.473-.056-.472.199-.003.015 0 .031 0 .047-.003.016 0 .031 0 .047-.003.015 0 .031 0 .047-.003.015 0 .031 0 .047-.003.015 0 .031 0 .047-.003.016 0 .031 0 .047-.003.015 0 .031 0 .047-.003.015 0 .031 0 .047-.003.016 0 .031 0 .047-.003.015 0 .031 0 .047-.003.015 0 .031 0 .047-.003.016 0 .031 0 .047-.003.015 0 .031 0 .047-.003.015 0 .031 0 .047-.003.016 0 .031 0 .047-.003.015 0 .031 0 .047-.003.015 0 .031 0 .047-.003.015 0 .031 0 .047-.003.016 0 .031 0 .047-.003.015 0 .031 0 .047-.052.295.327.635.931.92l-.007.047c-.4-.292-1.149-.687-1.073-.055.001.016-.004.031 0 .047.001.016-.004.031 0 .047.001.016-.004.031 0 .047.001.016-.004.031 0 .047.001.016-.004.031 0 .047.001.016-.004.031 0 .047.001.016-.004.031 0 .047.001.016-.004.031 0 .047.001.016-.004.031 0 .047.001.016-.004.031 0 .047.001.016-.004.031 0 .047.001.016-.004.031 0 .047.001.016-.004.031 0 .047.001.016-.004.031 0 .047.001.016-.004.031 0 .047.001.016-.004.031 0 .047.001.016-.004.031 0 .047.001.016-.004.031 0 .047.001.016-.004.031 0 .047.001.016-.004.031 0 .047.017.194.2.404.5.606a5.019 5.019 0 01-.195.328c-.641-.172-1.271-.216-1.271-.216s-.464.032-.998.147a5.988 5.988 0 01-.152-.259c.3-.202.483-.411.5-.606.004-.016-.001-.031 0-.047.004-.016-.001-.031 0-.047.004-.016-.001-.031 0-.047.004-.016-.001-.031 0-.047.004-.016-.001-.031 0-.047.004-.016-.001-.031 0-.047.004-.016-.001-.031 0-.047.004-.016-.001-.031 0-.047.004-.016-.001-.031 0-.047.004-.016-.001-.031 0-.047.004-.016-.001-.031 0-.047.004-.016-.001-.031 0-.047.004-.016-.001-.031 0-.047.004-.016-.001-.031 0-.047.004-.016-.001-.031 0-.047.004-.016-.001-.031 0-.047.004-.016-.001-.031 0-.047.004-.016-.001-.031 0-.047.004-.016-.001-.031 0-.047.004-.016-.001-.031 0-.047.077-.632-.673-.238-1.073.055l-.007-.047c.604-.285.983-.625.931-.92 0-.016.003-.032 0-.047 0-.016.003-.032 0-.047 0-.016.003-.032 0-.047 0-.016.003-.032 0-.047 0-.016.003-.032 0-.047 0-.016.003-.032 0-.047 0-.016.003-.032 0-.047 0-.016.003-.032 0-.047 0-.016.003-.032 0-.047 0-.016.003-.032 0-.047 0-.016.003-.032 0-.047 0-.016.003-.032 0-.047 0-.016.003-.032 0-.047 0-.016.003-.032 0-.047 0-.016.003-.032 0-.047 0-.016.003-.032 0-.047 0-.016.003-.032 0-.047 0-.016.003-.032 0-.047 0-.016.003-.032 0-.047 0-.016.003-.032 0-.047 0-.256-.209-.308-.472-.199.234-.633.411-.927.411-.927s.132-.259.105-.48c0-.016.002-.032 0-.047 0-.016.002-.032 0-.047 0-.016.002-.032 0-.047 0-.016.002-.032 0-.047 0-.016.002-.032 0-.047 0-.016.002-.032 0-.047 0-.016.002-.032 0-.047 0-.016.002-.032 0-.047 0-.016.002-.032 0-.047 0-.016.002-.032 0-.047 0-.016.002-.032 0-.047 0-.016.002-.032 0-.047 0-.016.002-.032 0-.047 0-.016.002-.032 0-.047 0-.016.002-.032 0-.047 0-.016.002-.032 0-.047 0-.016.002-.032 0-.047 0-.016.002-.032 0-.047 0-.016.002-.032 0-.047 0-.016.002-.032 0-.047-.409-1.306-2.312 1.58-2.362 3.343v.001.047.047.047.047.047.047.047.047.047.047.047.047.047.047.047.047.047.047.047.047c-.047.64.059 1.303.232 1.902-.151.171-.261.398-.244.646a.094.094 0 000 .047.094.094 0 000 .047.094.094 0 000 .047.094.094 0 000 .047.094.094 0 000 .047.094.094 0 000 .047.094.094 0 000 .047.094.094 0 000 .047.094.094 0 000 .047.094.094 0 000 .047.094.094 0 000 .047.094.094 0 000 .047.094.094 0 000 .047.094.094 0 000 .047.094.094 0 000 .047.094.094 0 000 .047.094.094 0 000 .047.094.094 0 000 .047.094.094 0 000 .047.094.094 0 000 .047c-.012.092.014.185.035.271-.468-.436-.947-1.105-1.131-2.229-.178-.753-.693-.645-.723.459v.944c-.079.736.315 2.077 1.083 2.599-1.118.344-1.978 2.084-1.87 2.68 0 .016-.001.032 0 .047 0 .016-.001.032 0 .047 0 .016-.001.032 0 .047 0 .016-.001.032 0 .047 0 .016-.001.032 0 .047 0 .016-.001.032 0 .047 0 .016-.001.032 0 .047 0 .016-.001.032 0 .047 0 .016-.001.032 0 .047 0 .016-.001.032 0 .047 0 .016-.001.032 0 .047 0 .016-.001.032 0 .047 0 .016-.001.032 0 .047 0 .016-.001.032 0 .047 0 .016-.001.032 0 .047 0 .016-.001.032 0 .047 0 .016-.001.032 0 .047 0 .016-.001.032 0 .047 0 .016-.001.032 0 .047 0 .016-.001.032 0 .047-.017.722.594.156.642.013.657-1.155 1.478-1.596 2.126-1.808-.016.114-.037.221-.05.341-1.389.752-1.95 2.86-1.805 4.311-.119 1.483.709 3.3 1.132 1.479.083-1.161.416-2.006.82-2.651.363 2.054 2.724 2.502 2.949 2.424h.025c.211.064 2.498-.312 2.932-2.351.384.637.7 1.458.779 2.578.423 1.821 1.251.006 1.132-1.479.137-1.428-.388-3.496-1.745-4.268-.012-.127-.034-.242-.051-.364.638.22 1.431.669 2.067 1.788.049.146.659.708.642-.013v-.047-.047-.047-.047-.047-.047-.047-.047-.047-.047-.047-.047-.047-.047-.047-.047-.047-.047-.047-.047c.02-.509-.3-1.563-1.23-2.313zM274.332 162.986a2.452 2.452 0 00-.539-.326c.935-.633 1.204-2.059 1.117-2.979v-.519c0-.031.001-.064 0-.094-.038-1.105-.555-1.212-.727-.456-.181 1.174-.688 1.858-1.172 2.297.034-.105.072-.22.058-.336.006-.016.003-.031 0-.047.006-.016.003-.031 0-.047.006-.016.003-.031 0-.047.006-.016.003-.031 0-.047.006-.016.003-.031 0-.047.006-.016.003-.031 0-.047.006-.016.003-.031 0-.047.006-.016.003-.031 0-.047.006-.016.003-.031 0-.047.006-.016.003-.031 0-.047.006-.016.003-.031 0-.047.006-.016.003-.031 0-.047.006-.016.003-.031 0-.047.006-.016.003-.031 0-.047.006-.016.003-.031 0-.047.006-.016.003-.031 0-.047.006-.016.003-.031 0-.047.006-.016.003-.031 0-.047.006-.016.003-.031 0-.047.006-.016.003-.031 0-.047.016-.212-.072-.41-.187-.568.185-.617.301-1.31.252-1.976v-.047-.047-.047-.047-.047-.047-.047-.047-.047-.047-.047-.047-.047-.047-.047-.047-.047-.047-.047-.047-.002c-.049-1.762-1.952-4.648-2.361-3.343-.002.016 0 .031 0 .047-.002.015 0 .031 0 .047-.002.015 0 .031 0 .047-.002.016 0 .031 0 .047-.002.015 0 .031 0 .047-.002.015 0 .031 0 .047-.002.016 0 .031 0 .047-.002.015 0 .031 0 .047-.002.016 0 .031 0 .047-.002.015 0 .031 0 .047-.002.015 0 .031 0 .047-.002.016 0 .031 0 .047-.002.015 0 .031 0 .047-.002.015 0 .031 0 .047-.002.016 0 .031 0 .047-.002.015 0 .031 0 .047-.002.015 0 .031 0 .047-.002.016 0 .031 0 .047-.002.015 0 .031 0 .047-.002.016 0 .031 0 .047-.027.221.105.48.105.48s.177.293.411.927c-.263-.108-.473-.056-.472.199-.003.015 0 .031 0 .047-.003.016 0 .031 0 .047-.003.016 0 .031 0 .047-.003.015 0 .031 0 .047-.003.016 0 .031 0 .047-.003.016 0 .031 0 .047-.003.015 0 .031 0 .047-.003.016 0 .031 0 .047-.003.016 0 .031 0 .047-.003.016 0 .031 0 .047-.003.016 0 .031 0 .047-.003.016 0 .031 0 .047-.003.016 0 .031 0 .047-.003.016 0 .031 0 .047-.003.016 0 .031 0 .047-.003.016 0 .031 0 .047-.003.016 0 .031 0 .047-.003.016 0 .031 0 .047-.003.016 0 .031 0 .047-.003.016 0 .031 0 .047-.052.295.327.635.931.92l-.007.047c-.4-.292-1.149-.687-1.073-.055.001.016-.004.031 0 .047.001.016-.004.031 0 .047.001.016-.004.031 0 .047.001.016-.004.031 0 .047.001.016-.004.031 0 .047.001.016-.004.031 0 .047.001.016-.004.031 0 .047.001.016-.004.031 0 .047.001.016-.004.031 0 .047.001.016-.004.031 0 .047.001.016-.004.031 0 .047.001.016-.004.031 0 .047.001.016-.004.031 0 .047.001.016-.004.031 0 .047.001.016-.004.031 0 .047.001.016-.004.031 0 .047.001.016-.004.031 0 .047.001.016-.004.031 0 .047.001.016-.004.031 0 .047.001.016-.004.031 0 .047.017.194.2.404.5.606a5.019 5.019 0 01-.195.328c-.641-.172-1.271-.216-1.271-.216s-.464.032-.998.147a5.988 5.988 0 01-.152-.259c.3-.202.483-.412.5-.606.004-.016-.001-.031 0-.047.004-.016-.001-.031 0-.047.004-.016-.001-.031 0-.047.004-.016-.001-.031 0-.047.004-.016-.001-.031 0-.047.004-.016-.001-.031 0-.047.004-.016-.001-.031 0-.047.004-.016-.001-.031 0-.047.004-.016-.001-.031 0-.047.004-.016-.001-.031 0-.047.004-.016-.001-.031 0-.047.004-.016-.001-.031 0-.047.004-.016-.001-.031 0-.047.004-.016-.001-.031 0-.047.004-.016-.001-.031 0-.047.004-.016-.001-.031 0-.047.004-.016-.001-.031 0-.047.004-.016-.001-.031 0-.047.004-.016-.001-.031 0-.047.004-.016-.001-.031 0-.047.077-.632-.673-.238-1.073.055l-.007-.048c.604-.285.983-.625.931-.92 0-.016.003-.032 0-.047 0-.016.003-.032 0-.047 0-.016.003-.032 0-.047 0-.016.003-.032 0-.047 0-.016.003-.032 0-.047 0-.016.003-.032 0-.047 0-.016.003-.032 0-.047 0-.016.003-.032 0-.047 0-.016.003-.032 0-.047 0-.016.003-.032 0-.047 0-.016.003-.032 0-.047 0-.016.003-.032 0-.047 0-.016.003-.032 0-.047 0-.016.003-.032 0-.047 0-.016.003-.032 0-.047 0-.016.003-.032 0-.047 0-.016.003-.032 0-.047 0-.016.003-.032 0-.047 0-.016.003-.032 0-.047 0-.016.003-.032 0-.047 0-.256-.209-.308-.472-.199.234-.633.411-.927.411-.927s.132-.259.105-.48c0-.016.002-.032 0-.047 0-.016.002-.032 0-.047 0-.016.002-.032 0-.047 0-.016.002-.032 0-.047 0-.016.002-.032 0-.047 0-.016.002-.032 0-.047 0-.016.002-.032 0-.047 0-.016.002-.032 0-.047 0-.016.002-.032 0-.047 0-.016.002-.032 0-.047 0-.016.002-.032 0-.047 0-.016.002-.032 0-.047 0-.016.002-.032 0-.047 0-.016.002-.032 0-.047 0-.016.002-.032 0-.047 0-.016.002-.032 0-.047 0-.016.002-.032 0-.047 0-.016.002-.032 0-.047 0-.016.002-.032 0-.047 0-.016.002-.032 0-.047-.409-1.306-2.312 1.58-2.362 3.343v.001.047.047.047.047.047.047.047.047.047.047.047.047.047.047.047.047.047.047.047.047c-.047.64.059 1.303.232 1.902-.151.171-.261.398-.244.646a.094.094 0 000 .047.094.094 0 000 .047.094.094 0 000 .047.094.094 0 000 .047.094.094 0 000 .047.094.094 0 000 .047.094.094 0 000 .047.094.094 0 000 .047.094.094 0 000 .047.094.094 0 000 .047.094.094 0 000 .047.094.094 0 000 .047.094.094 0 000 .047.094.094 0 000 .047.094.094 0 000 .047.094.094 0 000 .047.094.094 0 000 .047.094.094 0 000 .047.094.094 0 000 .047.094.094 0 000 .047c-.012.092.014.185.035.271-.468-.436-.947-1.105-1.131-2.229-.178-.754-.694-.643-.723.459-.001.015 0 .032 0 .047-.001.015 0 .032 0 .047-.001.015 0 .032 0 .047-.001.015 0 .032 0 .047-.001.015 0 .032 0 .047-.001.015 0 .032 0 .047-.001.015 0 .032 0 .047-.001.015 0 .032 0 .047-.001.015 0 .032 0 .047-.001.015 0 .032 0 .047-.001.015 0 .032 0 .047-.001.015 0 .032 0 .047-.001.015 0 .032 0 .047-.001.015 0 .032 0 .047-.001.015 0 .032 0 .047-.001.015 0 .032 0 .047-.001.015 0 .032 0 .047-.001.015 0 .032 0 .047-.001.015 0 .032 0 .047-.001.015 0 .032 0 .047-.079.736.315 2.077 1.083 2.599-1.118.344-1.978 2.084-1.87 2.68 0 .016-.001.032 0 .047 0 .016-.001.032 0 .047 0 .016-.001.032 0 .047 0 .016-.001.032 0 .047 0 .016-.001.032 0 .047 0 .016-.001.032 0 .047 0 .016-.001.032 0 .047 0 .016-.001.032 0 .047 0 .016-.001.032 0 .047 0 .016-.001.032 0 .047 0 .016-.001.032 0 .047 0 .016-.001.032 0 .047 0 .016-.001.032 0 .047 0 .016-.001.032 0 .047 0 .016-.001.032 0 .047 0 .016-.001.032 0 .047 0 .016-.001.032 0 .047 0 .016-.001.032 0 .047 0 .016-.001.032 0 .047 0 .016-.001.032 0 .047-.017.722.594.156.642.013.657-1.155 1.478-1.596 2.126-1.808-.016.114-.038.221-.05.341-1.389.752-1.95 2.86-1.805 4.311-.119 1.483.709 3.3 1.132 1.479.083-1.161.416-2.006.82-2.651.363 2.054 2.724 2.502 2.949 2.424h.025c.211.064 2.497-.312 2.932-2.351.384.637.7 1.458.779 2.578.423 1.821 1.251.006 1.132-1.479.137-1.429-.388-3.496-1.745-4.268-.012-.128-.034-.242-.051-.364.638.22 1.431.669 2.067 1.788.049.145.659.708.642-.013v-.047-.047-.047-.047V166v-.047-.047-.047-.047-.047-.047-.047-.047-.047-.047-.047-.047-.047-.047-.047c.02-.505-.299-1.559-1.23-2.309z"/></g><path fill="#E5BA95" d="M259.661 133.657c-.029-.84 1.167-1.175 1.57-.446.584-.166 1.179-.207 1.179-.207s.723.045 1.357.257c.368-.781 1.634-.478 1.604.395.003.478-.412.892-.892.849-.113.025-.218.015-.218.015h-3.701s-.209.018-.353-.071a.85.85 0 01-.546-.792zm6.318 10.724c-1.058 1.011-.533 2.137.324.588.069.154.12.34.178.514-.762.682-.7 2.051.204.815.043.237.094.465.113.734.529 2.24 1.838-1.026.648-3.315a3.527 3.527 0 00-1.304-1.472c1.139-2.483-.392-6.224-.387-6.146 0 0-.254-.761-1.094-.761-.811 0-2.062.039-2.146.042a83.519 83.519 0 00-2.146-.042c-.84 0-1.094.761-1.094.761.002-.05-1.523 3.643-.387 6.146a3.52 3.52 0 00-1.304 1.472c-1.189 2.289.119 5.555.649 3.315.019-.269.07-.496.113-.734.905 1.237.965-.135.204-.815.058-.174.109-.36.178-.514.859 1.55 1.381.421.324-.588.21-.336.434-.614.661-.848 1.093 1.089 2.553 1.17 2.786 1.175h.032c.232-.006 1.693-.087 2.786-1.175.228.234.452.512.662.848zm9.031-10.724c0 .363.228.669.547.794.144.088.353.071.353.071h3.701s.106.01.218-.015c.481.042.895-.371.892-.849.029-.873-1.236-1.176-1.604-.395a6.075 6.075 0 00-1.357-.257s-.595.041-1.179.207c-.404-.732-1.6-.396-1.571.444zm6.319 10.724c-1.058 1.011-.533 2.137.324.588.07.154.12.34.178.514-.762.682-.7 2.051.204.815.043.237.094.465.113.734.529 2.24 1.838-1.026.649-3.315a3.527 3.527 0 00-1.304-1.472c1.139-2.483-.392-6.224-.387-6.146 0 0-.254-.761-1.094-.761-.811 0-2.062.039-2.146.042a83.63 83.63 0 00-2.146-.042c-.84 0-1.094.761-1.094.761.002-.05-1.523 3.643-.387 6.146a3.52 3.52 0 00-1.304 1.472c-1.189 2.289.119 5.555.649 3.315.019-.269.07-.496.113-.734.905 1.237.965-.135.204-.815.058-.174.109-.36.178-.514.859 1.55 1.381.42.324-.588.21-.336.434-.614.662-.848 1.092 1.089 2.553 1.17 2.786 1.175h.032c.232-.006 1.693-.087 2.786-1.175.226.234.45.512.66.848zm9.887-11.581c-.927-.029-1.173 1.351-.31 1.651.144.088.353.071.353.071h3.701s.106.01.218-.015c.481.042.895-.371.892-.849.029-.873-1.236-1.176-1.604-.395a6.14 6.14 0 00-1.357-.257s-.595.041-1.179.207a.838.838 0 00-.714-.413zm6.93 10.917a3.527 3.527 0 00-1.304-1.472c1.139-2.483-.392-6.224-.387-6.146 0 0-.254-.761-1.094-.761-.811 0-2.062.039-2.146.042a83.519 83.519 0 00-2.146-.042c-.84 0-1.094.761-1.094.761.002-.05-1.523 3.643-.387 6.146a3.52 3.52 0 00-1.304 1.472c-1.189 2.289.119 5.555.649 3.315.019-.269.07-.496.113-.734.905 1.237.965-.135.204-.815.058-.174.109-.36.178-.514.859 1.55 1.381.421.324-.588.21-.336.434-.614.662-.848 1.092 1.089 2.553 1.17 2.786 1.175h.032c.232-.006 1.693-.087 2.786-1.175.227.234.451.513.661.848-1.058 1.011-.533 2.137.324.588.069.154.12.34.178.514-.762.682-.7 2.051.204.815.043.237.094.465.113.734.529 2.24 1.838-1.026.648-3.315zm-30.451-26.561c.144.088.353.071.353.071h3.701s.106.01.218-.015c.481.042.895-.371.892-.849.029-.849-1.187-1.176-1.581-.43-.142-.539-1.035-4.028-.381-4.32l-.006-.005c.194-.089.387-.181.599-.306.557-.329.594-.885.417-.911-.177-.025-.703.586-.987.405-.216-.138-.169-.191-.025-.645.176-.554-.338-.021-.338-.021-.228.228-.43.27-.554.275-.124-.005-.326-.047-.554-.275 0 0-.514-.533-.338.021.144.454.191.507-.025.645-.283.181-.81-.43-.987-.405-.177.025-.139.582.417.911.208.123.397.213.588.301l-.013.011c.647.289-.221 3.709-.376 4.301-.896-1.236-2.386.592-1.02 1.241zm-2.286 4.452c-1.441 1.091-1.594 3.507-.589 2.28a3.976 3.976 0 011.142-1.299c-.004.306.011.616.047.927-1.375 1.547-.919 4.808-.272 4.766.414-.036.486-.757.486-.757a6.007 6.007 0 01.453-1.949c1.076 1.72 3.039 1.829 3.312 1.835h.032c.27-.007 2.189-.118 3.272-1.782.216.524.381 1.139.435 1.896 0 0 .072.721.486.757.614.071 1.113-3.131-.222-4.696.04-.32.059-.641.056-.956.375.283.75.671 1.083 1.256 0 0 .262.432.533.33.454-.177-.373-2.54-1.737-2.966a11.483 11.483 0 00-.312-1.377 2.479 2.479 0 001.039-.976c.959-1.533.242-3.845-.261-2.34-.177 1.144-.665 1.829-1.138 2.27l-.01-.024s-.254-.762-1.094-.762c-.811 0-2.062.039-2.146.042a83.63 83.63 0 00-2.146-.042 1.13 1.13 0 00-1.075.718c-.457-.439-.918-1.103-1.096-2.196-.516-1.5-1.212.817-.24 2.342.268.45.616.731.962.918-.116.391-.236.869-.324 1.404a2.509 2.509 0 00-.676.381zm18.068-4.452c.144.088.353.071.353.071h3.701s.106.01.218-.015c.481.042.895-.371.892-.849.029-.849-1.187-1.176-1.581-.43-.142-.539-1.035-4.028-.381-4.32l-.006-.005c.194-.089.387-.181.599-.306.556-.329.594-.885.417-.911-.177-.025-.703.586-.987.405-.216-.138-.17-.191-.025-.645.176-.554-.338-.021-.338-.021-.228.228-.43.27-.554.275-.124-.005-.326-.047-.554-.275 0 0-.514-.533-.338.021.144.454.19.507-.025.645-.283.181-.81-.43-.987-.405-.177.025-.139.582.418.911.208.123.397.213.588.301l-.013.011c.647.289-.221 3.709-.376 4.301-.897-1.236-2.387.592-1.021 1.241zm-2.287 4.452c-1.441 1.092-1.594 3.507-.589 2.28a3.976 3.976 0 011.142-1.299c-.004.306.011.616.047.927-1.375 1.547-.919 4.808-.272 4.766.414-.036.486-.757.486-.757a6.007 6.007 0 01.453-1.949c1.076 1.72 3.039 1.829 3.312 1.835h.032c.27-.007 2.189-.118 3.272-1.782.216.524.381 1.139.435 1.896 0 0 .072.721.486.757.614.071 1.113-3.131-.222-4.696.04-.32.059-.641.056-.956.375.283.75.671 1.083 1.256 0 0 .262.432.533.33.453-.177-.373-2.539-1.737-2.966a11.483 11.483 0 00-.312-1.377 2.479 2.479 0 001.039-.976c.959-1.533.242-3.845-.261-2.34-.177 1.144-.665 1.829-1.138 2.27l-.01-.024s-.254-.762-1.094-.762c-.811 0-2.062.039-2.146.042a83.634 83.634 0 00-2.147-.042 1.13 1.13 0 00-1.075.718c-.457-.439-.918-1.103-1.096-2.196-.516-1.5-1.212.817-.24 2.342.268.45.616.731.962.918-.116.391-.236.869-.324 1.404a2.534 2.534 0 00-.675.381zm-6.858 41.335a2.504 2.504 0 00-1.714-.556c.038-.071.022-.165.025-.243.518-.096 1.305-.384 1.802-1.236.959-1.533.242-3.845-.261-2.34-.254 1.645-1.149 2.337-1.719 2.723-.408-.33-2.466-.142-2.595-.188-.173.051-2.175-.143-2.66.172-.575-.382-1.465-1.068-1.732-2.701-.516-1.5-1.212.818-.24 2.342.491.825 1.248 1.11 1.767 1.21.003.084-.015.189.027.267a2.52 2.52 0 00-1.831.549c-1.441 1.092-1.594 3.507-.589 2.28.728-1.28 1.66-1.685 2.331-1.871a9.357 9.357 0 00-.255 1.396 3.525 3.525 0 00-1.321 1.484c-1.189 2.289.119 5.555.649 3.315.082-1.161.416-2.006.82-2.651.363 2.054 2.724 2.502 2.949 2.424h.024c.211.064 2.498-.312 2.932-2.351.384.637.7 1.458.779 2.578.529 2.24 1.838-1.026.648-3.315a3.506 3.506 0 00-1.261-1.441 9.342 9.342 0 00-.253-1.421c.665.194 1.564.614 2.269 1.854 1.004 1.227.851-1.189-.591-2.28zm-1.197-6.893c-.135-1.824-1.567-3.743-2.081-3.635-.513.108-.176.77-.176.77s.388.627.776 2.089c-1.225-.712-1.06.503.171.939.02.348-.016.683-.085 1.001-1.175-.927-1.609.052-.211.721-.2.522-.436.92-.557 1.103-.641-.172-1.271-.216-1.271-.216s-.464.032-.998.147a5.878 5.878 0 01-.514-1.034c1.399-.67.962-1.647-.211-.721a3.745 3.745 0 01-.085-1.001c1.232-.436 1.396-1.651.171-.939.388-1.463.776-2.089.776-2.089s.338-.662-.176-.77c-.513-.108-1.946 1.811-2.081 3.635-.069.932.177 1.923.499 2.671-.724.343-.648 1.497.108 1.749.164.1.402.08.402.08h4.215s.12.011.249-.017c.963.099 1.397-1.299.562-1.771.332-.752.587-1.764.517-2.712zm17.397 6.893a2.504 2.504 0 00-1.714-.556c.038-.071.022-.165.025-.243.518-.096 1.305-.384 1.802-1.236.959-1.533.242-3.845-.261-2.34-.254 1.645-1.149 2.337-1.719 2.723-.408-.329-2.466-.142-2.595-.188-.173.051-2.175-.143-2.66.172-.575-.382-1.465-1.068-1.732-2.701-.516-1.5-1.212.817-.24 2.342.491.825 1.249 1.11 1.767 1.21.003.084-.015.189.027.267a2.523 2.523 0 00-1.832.549c-1.441 1.092-1.594 3.507-.589 2.28.728-1.28 1.66-1.685 2.331-1.871a9.357 9.357 0 00-.255 1.396 3.52 3.52 0 00-1.321 1.484c-1.189 2.289.119 5.555.649 3.315.082-1.161.416-2.006.82-2.651.363 2.054 2.724 2.502 2.949 2.424h.024c.211.064 2.498-.312 2.932-2.351.384.637.7 1.458.779 2.578.529 2.24 1.838-1.026.648-3.315a3.52 3.52 0 00-1.261-1.441 9.364 9.364 0 00-.253-1.421c.665.194 1.564.614 2.269 1.854 1.004 1.227.852-1.189-.59-2.28zm-1.197-6.893c-.135-1.824-1.567-3.743-2.081-3.635-.513.108-.176.77-.176.77s.388.627.776 2.089c-1.225-.712-1.06.503.171.939.02.348-.016.683-.085 1.001-1.175-.927-1.609.052-.211.721-.2.522-.436.92-.557 1.103-.641-.172-1.271-.216-1.271-.216s-.464.032-.998.147a5.878 5.878 0 01-.514-1.034c1.399-.67.962-1.647-.211-.721a3.745 3.745 0 01-.085-1.001c1.232-.436 1.396-1.651.171-.939.388-1.463.776-2.089.776-2.089s.338-.662-.176-.77c-.513-.108-1.946 1.811-2.081 3.635-.069.932.177 1.923.499 2.671-.724.343-.648 1.497.108 1.749.164.1.402.08.402.08h4.215s.12.011.249-.017c.963.099 1.397-1.299.562-1.772.332-.751.587-1.763.517-2.711z"/><g><path fill="#FFC800" d="M402.238 86.212l-26.284-17.235c-5.734 6.067-14.81 5.046-19.547-.185l-26.169 17.42L341.9 97.884l6.358-5.047-5.174 21.383s4.056 6.168 24.676 6.168 22.479-5.305 22.479-5.305l-5.623-21.932 5.961 4.732 11.661-11.671z"/><use xlink:href="#a" width="17.693" height="13.409" x="-8.847" y="-6.705" transform="matrix(1 0 0 -1 366.252 94.59)" overflow="visible"/></g><g><path fill="#E4DBD5" d="M402.238 142.205l-26.284-17.235c-5.734 6.067-14.81 5.046-19.547-.185l-26.169 17.42 11.662 11.672 6.358-5.047-5.174 21.383s4.056 6.168 24.676 6.168 22.479-5.305 22.479-5.305l-5.623-21.932 5.961 4.732 11.661-11.671z"/><use xlink:href="#a" width="17.693" height="13.409" x="-8.847" y="-6.705" transform="matrix(1 0 0 -1 366.252 150.584)" overflow="visible"/></g></svg>