<svg version="1.1" id="レイヤー_1" xmlns="http://www.w3.org/2000/svg" x="0" y="0" width="100" height="100" xml:space="preserve"><style>.st0{fill:#00553c}</style><path class="st0" d="M42.857 60.714L61.414 50 42.857 39.286z"/><path class="st0" d="M82.5 2.5h-65c-8.284 0-15 6.716-15 15v65c0 8.284 6.716 15 15 15h65c8.284 0 15-6.716 15-15v-65c0-8.284-6.716-15-15-15zm1.722 64.692a8.947 8.947 0 01-6.315 6.315C72.336 75 50 75 50 75s-22.336 0-27.907-1.493a8.945 8.945 0 01-6.315-6.315C14.286 61.622 14.286 50 14.286 50s0-11.622 1.493-17.192a8.947 8.947 0 016.315-6.315C27.664 25 50 25 50 25s22.336 0 27.907 1.493a8.945 8.945 0 016.315 6.315C85.714 38.378 85.714 50 85.714 50s0 11.622-1.492 17.192z"/></svg>